<?xml version="1.0" encoding="utf-8"?>
<!-- Generator: Adobe Illustrator 22.1.0, SVG Export Plug-In . SVG Version: 6.00 Build 0)  -->
<svg version="1.1" id="Layer_1" xmlns="http://www.w3.org/2000/svg" xmlns:xlink="http://www.w3.org/1999/xlink" x="0px" y="0px"
	 viewBox="0 0 167 89" style="enable-background:new 0 0 167 89;" xml:space="preserve">
<style type="text/css">
	.st0{filter:url(#Adobe_OpacityMaskFilter);}
	.st1{fill:#FFFFFF;}
	.st2{mask:url(#mask-2_1_);fill:#E8C547;}
	.st3{fill:#E8C547;}
	.st4{filter:url(#Adobe_OpacityMaskFilter_1_);}
	.st5{mask:url(#mask-4_1_);fill:#E8C547;}
	.st6{filter:url(#Adobe_OpacityMaskFilter_2_);}
	.st7{mask:url(#mask-6_1_);fill:#E8C547;}
</style>
<g id="Page-1_1_">
	<g id="iPhone-SE" transform="translate(-77.000000, -80.000000)">
		<g id="Page-1" transform="translate(77.000000, 79.000000)">
			<g id="Group-3" transform="translate(37.000000, 70.435200)">
				<g id="Clip-2">
				</g>
				<defs>
					<filter id="Adobe_OpacityMaskFilter" filterUnits="userSpaceOnUse" x="0.8" y="0.9" width="17.7" height="18.1">
						<feColorMatrix  type="matrix" values="1 0 0 0 0  0 1 0 0 0  0 0 1 0 0  0 0 0 1 0"/>
					</filter>
				</defs>
				<mask maskUnits="userSpaceOnUse" x="0.8" y="0.9" width="17.7" height="18.1" id="mask-2_1_">
					<g class="st0">
						<polygon id="path-1_1_" class="st1" points="0.8,0.9 18.5,0.9 18.5,19 0.8,19 						"/>
					</g>
				</mask>
				<path id="Fill-1" class="st2" d="M5.2,9.8h4.7L8.4,5.4C8.1,4.6,7.9,4,7.6,3.5L5.2,9.8z M3.2,1.4C4,1,4.8,0.9,5.5,0.9
					c0.6,0,1.3,0.2,1.9,0.7C7.8,1.8,8.2,2.3,8.6,3c0.3,0.5,0.7,1.4,1.1,2.7l2.3,6.4c0.5,1.4,1,2.6,1.6,3.4c0.5,0.8,1,1.5,1.5,1.9
					c0.4,0.4,0.9,0.7,1.4,0.9c0.5,0.2,0.9,0.3,1.2,0.3s0.6,0,0.8-0.1l0,0.2c-0.6,0.2-1.2,0.3-1.7,0.3c-0.6,0-1.1-0.1-1.7-0.4
					c-0.6-0.3-1.1-0.7-1.6-1.2c-1.1-1.1-2-2.7-2.7-4.9l-0.7-2.1H5l-1.3,3.3c-0.1,0.1-0.1,0.3-0.1,0.4c0,0.1,0.1,0.3,0.2,0.5
					c0.1,0.2,0.3,0.2,0.6,0.2h0.1V15H0.8v-0.2H1c0.3,0,0.6-0.1,0.9-0.3c0.3-0.2,0.5-0.4,0.7-0.8l4.6-11c-0.7-1-1.5-1.4-2.5-1.4
					c-0.4,0-0.9,0.1-1.4,0.3L3.2,1.4z"/>
			</g>
			<path id="Fill-4" class="st3" d="M54.9,73v11.9h3.7c1,0,2-0.2,2.8-0.7c0.8-0.5,1.4-1.2,1.9-2.1c0.4-0.9,0.7-1.9,0.7-3.1
				c0-1.8-0.5-3.2-1.5-4.3c-1-1.1-2.2-1.6-3.8-1.6H54.9z M63.4,74.2c1.2,1.2,1.8,2.8,1.8,4.7c0,1.9-0.6,3.5-1.8,4.7
				c-1.2,1.2-2.8,1.8-4.8,1.8h-6.3v-0.2h0.2c0.3,0,0.6-0.1,0.8-0.3s0.3-0.5,0.4-0.8V73.7c0-0.3-0.1-0.5-0.4-0.8
				c-0.2-0.2-0.5-0.3-0.8-0.3h-0.2l0-0.2h6.3C60.6,72.4,62.2,73,63.4,74.2z"/>
			<path id="Fill-6" class="st3" d="M75.7,72.4h3.7v0.2h-0.2c-0.3,0-0.6,0.1-0.9,0.3c-0.3,0.2-0.5,0.5-0.7,0.9l-4.5,10
				c-0.5,1-0.7,1.6-0.7,1.9h-0.2l-5.2-11.9c-0.2-0.4-0.4-0.7-0.7-0.9c-0.3-0.2-0.6-0.3-0.9-0.3h-0.1v-0.2h4.2v0.2h-0.2
				c-0.3,0-0.5,0.1-0.6,0.2c-0.1,0.2-0.2,0.3-0.2,0.5c0,0.1,0,0.3,0.1,0.4l3.9,9.7l4-9.7c0-0.1,0.1-0.3,0.1-0.4
				c0-0.1-0.1-0.3-0.2-0.5c-0.1-0.2-0.3-0.2-0.6-0.2h-0.2V72.4z"/>
			<path id="Fill-8" class="st3" d="M80.6,85.2c0.3,0,0.6-0.1,0.8-0.3c0.2-0.2,0.3-0.5,0.4-0.8V73.8c0-0.3-0.1-0.6-0.4-0.8
				c-0.2-0.2-0.5-0.3-0.8-0.3h-0.2v-0.2h4.1v0.2h-0.2c-0.3,0-0.6,0.1-0.8,0.3c-0.2,0.2-0.3,0.5-0.4,0.8v10.3c0,0.3,0.1,0.6,0.4,0.8
				c0.2,0.2,0.5,0.3,0.8,0.3h0.2v0.2h-4.1v-0.2H80.6z"/>
			<path id="Fill-10" class="st3" d="M86.6,84.7c0-0.2-0.1-0.5-0.1-1c0-0.5,0.1-1,0.3-1.6H87c0,0.1,0,0.3,0,0.4
				c0,0.8,0.2,1.4,0.7,1.9c0.5,0.5,1.1,0.8,1.8,0.8c0.8,0,1.4-0.2,1.9-0.7c0.5-0.5,0.8-1.1,0.8-1.8c0-0.7-0.2-1.3-0.7-1.7l-3.6-3.3
				c-0.7-0.6-1-1.4-1-2.2c0-0.9,0.3-1.6,0.9-2.3c0.6-0.6,1.4-0.9,2.4-0.9c0.5,0,1,0.1,1.6,0.2h0.7v2.3h-0.2c0-0.6-0.2-1-0.6-1.4
				c-0.4-0.3-0.9-0.5-1.5-0.5c-0.6,0-1.2,0.2-1.6,0.6c-0.4,0.4-0.6,0.9-0.6,1.6c0,0.6,0.2,1.2,0.7,1.6l3.7,3.4
				c0.6,0.6,0.9,1.3,0.9,2.3c0,1-0.3,1.8-0.9,2.4c-0.6,0.6-1.5,1-2.5,1c-0.5,0-1.1-0.1-1.7-0.2C87.5,85.3,87,85,86.6,84.7"/>
			<path id="Fill-12" class="st3" d="M98.1,83.4c1,1.1,2.4,1.7,4.1,1.7c1.7,0,3.1-0.6,4.1-1.7c1-1.1,1.6-2.6,1.6-4.5
				c0-1.9-0.5-3.3-1.6-4.5c-1-1.1-2.4-1.7-4.1-1.7c-1.7,0-3.1,0.6-4.1,1.7c-1,1.1-1.6,2.6-1.6,4.5C96.5,80.8,97,82.3,98.1,83.4
				 M97.1,74c1.3-1.2,3-1.9,5.1-1.9c2.1,0,3.8,0.6,5.1,1.9c1.3,1.2,2,2.9,2,4.9s-0.7,3.6-2,4.9c-1.3,1.2-3,1.9-5.1,1.9
				c-2.1,0-3.8-0.6-5.1-1.9c-1.3-1.2-2-2.9-2-4.9S95.7,75.3,97.1,74"/>
			<path id="Fill-14" class="st3" d="M114.6,73h-1.2v11.1c0,0.3,0.1,0.6,0.3,0.8c0.2,0.2,0.5,0.3,0.8,0.3h0.2l0,0.2h-4.1v-0.2h0.2
				c0.3,0,0.6-0.1,0.8-0.3c0.2-0.2,0.3-0.5,0.4-0.8V73.8c0-0.3-0.1-0.6-0.4-0.8c-0.2-0.2-0.5-0.3-0.8-0.3h-0.2v-0.2h5
				c1.1,0,2,0.3,2.7,0.9c0.6,0.6,1,1.4,1,2.4c0,1-0.3,1.9-0.9,2.6c-0.6,0.7-1.4,1.1-2.2,1.1c0.2,0.1,0.4,0.3,0.7,0.5
				c0.3,0.3,0.5,0.5,0.7,0.8c1.1,1.5,1.8,2.5,2.1,2.8c0.3,0.4,0.5,0.6,0.7,0.7c0.1,0.1,0.3,0.3,0.4,0.4c0.2,0.1,0.3,0.2,0.5,0.3
				c0.4,0.2,0.7,0.3,1.2,0.3v0.2h-1c-0.5,0-1-0.1-1.5-0.3c-0.5-0.2-0.8-0.4-1-0.6c-0.2-0.2-0.4-0.4-0.6-0.6
				c-0.2-0.2-0.6-0.8-1.4-1.9c-0.8-1.1-1.2-1.7-1.3-1.9s-0.3-0.3-0.4-0.5c-0.4-0.4-0.8-0.6-1.2-0.6v-0.2c0.1,0,0.2,0,0.4,0
				c0.2,0,0.4,0,0.6,0c1.5,0,2.5-0.7,2.9-1.9c0.1-0.2,0.1-0.5,0.1-0.7v-0.4c0-0.8-0.2-1.5-0.6-2c-0.4-0.5-1-0.8-1.7-0.8
				C115.5,73,115.1,73,114.6,73"/>
			<path id="Fill-16" class="st3" d="M123.1,84.7c0-0.2-0.1-0.5-0.1-1c0-0.5,0.1-1,0.3-1.6h0.2c0,0.1,0,0.3,0,0.4
				c0,0.8,0.2,1.4,0.7,1.9c0.5,0.5,1.1,0.8,1.8,0.8c0.8,0,1.4-0.2,1.9-0.7c0.5-0.5,0.8-1.1,0.8-1.8c0-0.7-0.2-1.3-0.7-1.7l-3.6-3.3
				c-0.7-0.6-1-1.4-1-2.2c0-0.9,0.3-1.6,0.9-2.3c0.6-0.6,1.4-0.9,2.4-0.9c0.5,0,1,0.1,1.6,0.2h0.7v2.3h-0.2c0-0.6-0.2-1-0.6-1.4
				c-0.4-0.3-0.9-0.5-1.5-0.5c-0.6,0-1.2,0.2-1.6,0.6c-0.4,0.4-0.6,0.9-0.6,1.6c0,0.6,0.2,1.2,0.7,1.6l3.7,3.4
				c0.6,0.6,0.9,1.3,0.9,2.3c0,1-0.3,1.8-0.9,2.4c-0.6,0.6-1.5,1-2.5,1c-0.5,0-1.1-0.1-1.7-0.2C123.9,85.3,123.4,85,123.1,84.7"/>
			<g id="Group-20" transform="translate(0.000000, 49.435200)">
				<g id="Clip-19">
				</g>
				<defs>
					<filter id="Adobe_OpacityMaskFilter_1_" filterUnits="userSpaceOnUse" x="0" y="0.5" width="9.6" height="13.3">
						<feColorMatrix  type="matrix" values="1 0 0 0 0  0 1 0 0 0  0 0 1 0 0  0 0 0 1 0"/>
					</filter>
				</defs>
				<mask maskUnits="userSpaceOnUse" x="0" y="0.5" width="9.6" height="13.3" id="mask-4_1_">
					<g class="st4">
						<polygon id="path-3_1_" class="st1" points="0,0.5 9.6,0.5 9.6,13.7 0,13.7 						"/>
					</g>
				</mask>
				<path id="Fill-18" class="st5" d="M5.4,0.5c1.1,0,2,0.3,2.7,0.8c1,0.7,1.4,1.8,1.4,3.2c0,1.1-0.3,2-0.9,2.7C8,8,7.1,8.4,6,8.4
					C5.4,8.4,4.8,8.3,4.3,8C3.8,7.7,3.6,7.2,3.5,6.5l0.2-0.1C3.8,7,4.1,7.3,4.6,7.6c0.3,0.1,0.6,0.2,0.9,0.2c1,0,1.7-0.4,2.2-1.2
					C8,6,8.2,5.3,8.2,4.5c0-1.3-0.4-2.2-1.1-2.8C6.6,1.3,5.9,1.1,5,1.1c-0.2,0-0.4,0-0.5,0c-0.1,0-0.8,0.1-1.9,0.3v11
					c0,0.3,0.1,0.6,0.4,0.8c0.2,0.2,0.5,0.3,0.8,0.3h0.2v0.2H0v-0.2h0.2c0.3,0,0.6-0.1,0.8-0.3c0.2-0.2,0.4-0.5,0.4-0.8v-10
					c0-0.3-0.1-0.6-0.3-0.8C1,1.4,0.7,1.3,0.4,1.3c-0.1,0-0.1,0-0.2,0L0,1.4l0-0.2C0.6,1.1,1.5,1,2.6,0.8c1.1-0.2,1.8-0.3,2-0.3
					C4.9,0.5,5.1,0.5,5.4,0.5"/>
			</g>
			<path id="Fill-21" class="st3" d="M14.3,61.2c1,1.1,2.4,1.7,4.1,1.7c1.7,0,3.1-0.6,4.1-1.7c1-1.1,1.6-2.6,1.6-4.5
				c0-1.9-0.5-3.4-1.6-4.5c-1-1.1-2.4-1.7-4.1-1.7c-1.7,0-3.1,0.6-4.1,1.7c-1,1.1-1.6,2.6-1.6,4.5C12.7,58.5,13.2,60,14.3,61.2
				 M13.3,51.8c1.3-1.2,3-1.9,5.1-1.9c2.1,0,3.8,0.6,5.1,1.9c1.3,1.2,2,2.9,2,4.9c0,2-0.7,3.6-2,4.9c-1.3,1.2-3,1.9-5.1,1.9
				c-2.1,0-3.8-0.6-5.1-1.9c-1.3-1.2-2-2.9-2-4.9C11.3,54.7,12,53,13.3,51.8"/>
			<path id="Fill-23" class="st3" d="M29.6,50.8v11.9h3.7c1,0,2-0.2,2.8-0.7s1.4-1.2,1.9-2.1c0.4-0.9,0.7-1.9,0.7-3.1
				c0-1.8-0.5-3.2-1.5-4.3c-1-1.1-2.2-1.6-3.8-1.6H29.6z M38.1,52c1.2,1.2,1.8,2.8,1.8,4.7c0,1.9-0.6,3.5-1.8,4.7
				c-1.2,1.2-2.8,1.8-4.8,1.8H27V63h0.2c0.3,0,0.6-0.1,0.8-0.3c0.2-0.2,0.3-0.5,0.4-0.8V51.4c0-0.3-0.1-0.5-0.4-0.8
				c-0.2-0.2-0.5-0.3-0.8-0.3H27l0-0.2h6.3C35.3,50.2,36.9,50.8,38.1,52z"/>
			<path id="Fill-25" class="st3" d="M41.8,63c0.3,0,0.6-0.1,0.8-0.3c0.2-0.2,0.3-0.5,0.4-0.8V51.4c0-0.3-0.1-0.5-0.4-0.8
				c-0.2-0.2-0.5-0.3-0.8-0.3h-0.2l0-0.2H47c0.4,0,0.8,0,1.3-0.1c0.5-0.1,0.8-0.1,1-0.2v2.3h-0.2v-0.3c0-0.3-0.1-0.5-0.3-0.8
				c-0.2-0.2-0.4-0.3-0.7-0.3h-3.8v5.7h3.1c0.2,0,0.5-0.1,0.6-0.3c0.2-0.2,0.3-0.4,0.3-0.6v-0.3h0.2v2.9h-0.2V58
				c0-0.2-0.1-0.5-0.3-0.6c-0.2-0.2-0.4-0.3-0.6-0.3h-3.2v5.5h2.7c0.9,0,1.6-0.2,2.1-0.6c0.5-0.4,0.9-1,1.2-1.8h0.2l-1.1,3h-7.7V63
				H41.8z"/>
			<path id="Fill-27" class="st3" d="M52.3,62.4c0-0.2-0.1-0.5-0.1-1c0-0.5,0.1-1,0.3-1.6h0.2c0,0.1,0,0.3,0,0.4
				c0,0.8,0.2,1.4,0.7,1.9c0.5,0.5,1.1,0.8,1.8,0.8c0.8,0,1.4-0.2,1.9-0.7c0.5-0.5,0.8-1.1,0.8-1.8c0-0.7-0.2-1.3-0.7-1.7l-3.6-3.3
				c-0.7-0.6-1-1.4-1-2.2c0-0.9,0.3-1.6,0.9-2.3c0.6-0.6,1.4-0.9,2.4-0.9c0.5,0,1,0.1,1.6,0.2h0.7v2.3H58c0-0.6-0.2-1-0.6-1.4
				s-0.9-0.5-1.5-0.5c-0.6,0-1.2,0.2-1.6,0.6c-0.4,0.4-0.6,0.9-0.6,1.6c0,0.6,0.2,1.2,0.7,1.6l3.7,3.4c0.6,0.6,0.9,1.3,0.9,2.3
				c0,1-0.3,1.8-0.9,2.4c-0.6,0.6-1.5,1-2.5,1c-0.5,0-1.1-0.1-1.7-0.2C53.1,63,52.7,62.8,52.3,62.4"/>
			<path id="Fill-29" class="st3" d="M70.9,51.9c0-0.3-0.1-0.6-0.3-0.8c-0.2-0.2-0.5-0.3-0.7-0.3h-3.5v11.1c0,0.3,0.1,0.6,0.4,0.8
				c0.2,0.2,0.5,0.3,0.8,0.3h0.2v0.2h-4.1V63H64c0.3,0,0.6-0.1,0.8-0.3c0.2-0.2,0.3-0.5,0.4-0.8V50.7h-3.5c-0.3,0-0.5,0.1-0.8,0.3
				c-0.2,0.2-0.3,0.5-0.3,0.8v0.3l-0.2,0v-2.3c0.2,0.1,0.5,0.1,1,0.2c0.5,0.1,0.9,0.1,1.3,0.1h6.3c0.6,0,1.1,0,1.5-0.1
				c0.4-0.1,0.6-0.2,0.7-0.2v2.3l-0.2,0V51.9z"/>
			<path id="Fill-31" class="st3" d="M74.4,58.1h4.6l-2.2-6L74.4,58.1z M83.5,63h0.1v0.2h-4.2V63h0.2c0.3,0,0.5-0.1,0.6-0.2
				c0.1-0.2,0.2-0.3,0.2-0.5c0-0.1,0-0.3-0.1-0.4l-1.2-3.2h-5l-1.2,3.2c0,0.1-0.1,0.3-0.1,0.4c0,0.1,0.1,0.3,0.2,0.5
				c0.1,0.2,0.3,0.2,0.6,0.2h0.2v0.2H70V63h0.2c0.3,0,0.6-0.1,0.9-0.3c0.3-0.2,0.5-0.5,0.7-0.9l4.2-10c0.5-1,0.7-1.6,0.7-1.9h0.2
				l5,11.9c0.2,0.4,0.4,0.7,0.7,0.9C82.8,62.9,83.2,63,83.5,63z"/>
			<path id="Fill-33" class="st3" d="M102.8,56.7c0,2.1-0.6,3.8-1.7,5c-1.1,1.2-2.8,1.8-4.8,1.8c-1.4,0-2.7-0.3-3.8-0.9
				c-1.1-0.6-2-1.4-2.6-2.4c-0.6-1-0.9-2.2-0.9-3.4c0-1.3,0.3-2.4,0.9-3.4c0.6-1,1.5-1.8,2.6-2.4c1.1-0.6,2.3-0.9,3.6-0.9
				c0.8,0,1.7,0.1,2.6,0.3c0.9,0.2,1.6,0.5,2.2,0.9l0.4,2.6h-0.2c-0.3-1-0.9-1.9-1.8-2.4c-0.9-0.6-2-0.9-3.1-0.9
				c-1.6,0-3,0.6-4.1,1.8c-1.1,1.2-1.6,2.6-1.6,4.4c0,1.8,0.6,3.2,1.7,4.4c1.1,1.2,2.6,1.8,4.4,1.8c1.8,0,3.3-0.6,4.5-1.8
				c1.2-1.2,1.7-2.8,1.7-4.9h0.2C102.8,56.4,102.8,56.5,102.8,56.7"/>
			<path id="Fill-35" class="st3" d="M107.1,58.1h4.6l-2.2-6L107.1,58.1z M116.3,63h0.1v0.2h-4.2V63h0.2c0.3,0,0.5-0.1,0.6-0.2
				c0.1-0.2,0.2-0.3,0.2-0.5c0-0.1,0-0.3-0.1-0.4l-1.2-3.2h-5l-1.2,3.2c-0.1,0.1-0.1,0.3-0.1,0.4c0,0.1,0.1,0.3,0.2,0.5
				c0.1,0.2,0.3,0.2,0.6,0.2h0.2v0.2h-3.7V63h0.2c0.3,0,0.6-0.1,0.9-0.3c0.3-0.2,0.5-0.5,0.7-0.9l4.2-10c0.5-1,0.7-1.6,0.7-1.9h0.2
				l5,11.9c0.2,0.4,0.4,0.7,0.7,0.9C115.6,62.9,115.9,63,116.3,63z"/>
			<path id="Fill-37" class="st3" d="M126,53.8c0,0.5-0.1,1.1-0.3,1.5c-0.4,0.9-1.1,1.5-2.2,1.8c-0.4,0.1-0.7,0.2-0.9,0.2
				c-0.8,0-1.4-0.1-2-0.4v-0.2c0.9,0.2,1.7,0.1,2.5-0.3c0.7-0.3,1.1-0.9,1.4-1.7c0.1-0.2,0.1-0.5,0.1-0.7v-0.4
				c0-0.9-0.3-1.6-0.7-2.1c-0.4-0.5-1-0.8-1.8-0.8h-2.1v11.1c0,0.3,0.1,0.6,0.4,0.8c0.2,0.2,0.5,0.3,0.8,0.3h0.2v0.2h-4.1V63h0.2
				c0.3,0,0.6-0.1,0.8-0.3c0.2-0.2,0.3-0.5,0.4-0.8V51.5c0-0.3-0.2-0.6-0.4-0.8c-0.2-0.2-0.5-0.3-0.8-0.3h-0.2l0-0.2h4.8
				c1.2,0,2.1,0.3,2.8,1C125.6,51.8,126,52.7,126,53.8"/>
			<path id="Fill-39" class="st3" d="M128.2,63c0.3,0,0.6-0.1,0.8-0.3c0.2-0.2,0.3-0.5,0.4-0.8V51.5c0-0.3-0.1-0.6-0.4-0.8
				c-0.2-0.2-0.5-0.3-0.8-0.3h-0.2v-0.2h4.1v0.2h-0.2c-0.3,0-0.6,0.1-0.8,0.3c-0.2,0.2-0.3,0.5-0.4,0.8v10.3c0,0.3,0.1,0.6,0.4,0.8
				c0.2,0.2,0.5,0.3,0.8,0.3h0.2v0.2h-4.1V63H128.2z"/>
			<path id="Fill-41" class="st3" d="M144,51.9c0-0.3-0.1-0.6-0.3-0.8c-0.2-0.2-0.5-0.3-0.7-0.3h-3.5v11.1c0,0.3,0.1,0.6,0.4,0.8
				s0.5,0.3,0.8,0.3h0.2v0.2h-4.1V63h0.2c0.3,0,0.6-0.1,0.8-0.3c0.2-0.2,0.3-0.5,0.4-0.8V50.7h-3.5c-0.3,0-0.5,0.1-0.8,0.3
				c-0.2,0.2-0.3,0.5-0.3,0.8v0.3l-0.2,0v-2.3c0.2,0.1,0.5,0.1,1,0.2c0.5,0.1,0.9,0.1,1.3,0.1h6.3c0.6,0,1.1,0,1.5-0.1
				c0.4-0.1,0.6-0.2,0.7-0.2v2.3l-0.2,0V51.9z"/>
			<path id="Fill-43" class="st3" d="M147.4,58.1h4.6l-2.2-6L147.4,58.1z M156.5,63h0.1v0.2h-4.2V63h0.2c0.3,0,0.5-0.1,0.6-0.2
				c0.1-0.2,0.2-0.3,0.2-0.5c0-0.1,0-0.3-0.1-0.4l-1.2-3.2h-5l-1.2,3.2c0,0.1-0.1,0.3-0.1,0.4c0,0.1,0.1,0.3,0.2,0.5
				c0.1,0.2,0.3,0.2,0.6,0.2h0.2v0.2h-3.7V63h0.2c0.3,0,0.6-0.1,0.9-0.3c0.3-0.2,0.5-0.5,0.7-0.9l4.2-10c0.5-1,0.7-1.6,0.7-1.9h0.2
				l5,11.9c0.2,0.4,0.4,0.7,0.7,0.9C155.9,62.9,156.2,63,156.5,63z"/>
			<path id="Fill-45" class="st3" d="M157.8,63c0.3,0,0.6-0.1,0.8-0.3c0.2-0.2,0.3-0.5,0.4-0.8V51.6c0-0.3-0.1-0.6-0.4-0.8
				c-0.2-0.2-0.5-0.3-0.8-0.3h-0.2v-0.2h4.1v0.2h-0.2c-0.4,0-0.8,0.2-1,0.6c-0.1,0.2-0.2,0.4-0.2,0.6v11h2.7c0.9,0,1.6-0.2,2.1-0.6
				c0.5-0.4,0.9-1,1.2-1.8h0.2l-1.1,3h-7.7V63H157.8z"/>
			<path id="Fill-47" class="st3" d="M98.3,21l1.7,0.4c-0.5-2.6-1.6-4.8-3.2-6.8l-0.7,1.6C97.1,17.6,97.9,19.2,98.3,21"/>
			<path id="Fill-49" class="st3" d="M76.2,36l-1.6,0.7c2,1.7,4.4,2.7,7.1,3.2l-0.4-1.7C79.4,37.8,77.7,37.1,76.2,36"/>
			<path id="Fill-51" class="st3" d="M70.6,27.7L69,27.3c0.5,2.7,1.7,5.1,3.4,7.2l0.7-1.6C71.9,31.3,71.1,29.6,70.6,27.7"/>
			<path id="Fill-53" class="st3" d="M87.9,38.2l-0.4,1.7c2.7-0.5,5-1.6,7-3.3l-1.6-0.7C91.4,37,89.8,37.7,87.9,38.2"/>
			<path id="Fill-55" class="st3" d="M96.1,32.6l0.7,1.6c1.6-2,2.7-4.3,3.2-6.9l-1.7,0.4C97.9,29.5,97.2,31.2,96.1,32.6"/>
			<path id="Fill-57" class="st3" d="M92.9,12.9l1.6-0.7c-2-1.7-4.3-2.8-7-3.3l0.4,1.7C89.8,11.1,91.5,11.8,92.9,12.9"/>
			<path id="Fill-59" class="st3" d="M73.1,15.9l-0.7-1.6c-1.7,2-2.8,4.4-3.4,7.1l1.7-0.4C71.1,19.2,71.9,17.5,73.1,15.9"/>
			<path id="Fill-61" class="st3" d="M81.3,10.5l0.4-1.7c-2.7,0.5-5,1.6-7.1,3.2l1.6,0.7C77.7,11.7,79.4,11,81.3,10.5"/>
			<g id="Group-65" transform="translate(61.000000, 0.435200)">
				<g id="Clip-64">
				</g>
				<defs>
					<filter id="Adobe_OpacityMaskFilter_2_" filterUnits="userSpaceOnUse" x="0.3" y="0.6" width="46.7" height="46.7">
						<feColorMatrix  type="matrix" values="1 0 0 0 0  0 1 0 0 0  0 0 1 0 0  0 0 0 1 0"/>
					</filter>
				</defs>
				<mask maskUnits="userSpaceOnUse" x="0.3" y="0.6" width="46.7" height="46.7" id="mask-6_1_">
					<g class="st6">
						<polygon id="path-5_1_" class="st1" points="0.3,0.6 47,0.6 47,47.3 0.3,47.3 						"/>
					</g>
				</mask>
				<path id="Fill-63" class="st7" d="M26.5,34.4l1.2-6l6.4-1.6C33,30.6,30.1,33.4,26.5,34.4z M23.6,28.7c-2.7,0-4.9-2.2-4.9-4.9
					c0-2.7,2.2-4.9,4.9-4.9c2.7,0,4.9,2.2,4.9,4.9C28.5,26.6,26.3,28.7,23.6,28.7z M23.8,41.8L23.4,40V30l0,0c0.1,0,0.1,0,0.2,0
					c0.9,0,1.8-0.2,2.6-0.6L23.8,41.8z M20,34.3c-0.5-0.2-1.1-0.4-1.6-0.7c-1.4-0.7-2.6-1.7-3.5-2.9h0c-0.4-0.5-0.7-1-1-1.5h0
					c0-0.1-0.1-0.1-0.1-0.2c-0.2-0.5-0.5-1-0.7-1.5C13.1,27.2,13,27,13,26.8l6,1.2c0,0,0,0,0,0l1.6,6.4C20.4,34.4,20.2,34.3,20,34.3
					C20,34.3,20,34.3,20,34.3z M5.8,23.9l0.1,0h11.4c0,1,0.2,1.9,0.7,2.8L5.8,23.9z M13.1,20.6c0,0,0-0.1,0-0.1
					c0-0.1,0.1-0.2,0.1-0.4c1.2-3.3,4-5.8,7.4-6.8l-1.2,5.8c-0.1,0.1-0.2,0.1-0.2,0.2l-6.2,1.5C13.1,20.8,13.1,20.7,13.1,20.6z
					 M23.6,5.4l0.1,0.3v12c0,0,0,0-0.1,0c-0.9,0-1.7,0.2-2.4,0.5L23.6,5.4z M34.1,21l-5.8-1.2c0,0-0.1-0.1-0.1-0.1l-1.5-6.3
					C30.3,14.5,33.1,17.4,34.1,21z M42.6,23.9L42,24H29.8l0,0c0-0.1,0-0.2,0-0.2c0-1-0.2-1.9-0.7-2.8L42.6,23.9z M34.2,30.3
					c0.5-0.8,0.8-1.7,1.1-2.6c0.1-0.4,0.2-0.8,0.3-1.2l1.7-0.4l9.6-2.2l-11.3-2.6c-0.1-0.4-0.2-0.8-0.3-1.2
					c-0.3-0.9-0.7-1.7-1.1-2.4c-0.2-0.4-0.5-0.7-0.7-1.1l2.1-4.6l-4.5,2.1c-0.3-0.2-0.7-0.5-1-0.7c-0.8-0.5-1.7-0.9-2.6-1.2
					c-0.4-0.1-0.8-0.2-1.2-0.3l-0.5-2l-2.2-9.2L21,11.8c-0.4,0.1-0.8,0.2-1.2,0.3c-0.9,0.3-1.8,0.7-2.6,1.2
					c-0.4,0.2-0.7,0.5-1.1,0.7l-4.4-2l2,4.3c-0.3,0.3-0.5,0.7-0.7,1.1c-0.5,0.8-1,1.8-1.3,2.7c-0.1,0.4-0.2,0.8-0.3,1.2l-1.9,0.5
					l0,0l-9.2,2.1L9.1,26l0,0l0.2,0l2.1,0.5c0.1,0.4,0.2,0.8,0.3,1.2c0.3,1,0.7,2,1.3,2.8c0.2,0.4,0.5,0.7,0.7,1l-2,4.4l4.4-2
					c0.3,0.3,0.7,0.5,1.1,0.7c0.8,0.5,1.7,0.9,2.7,1.2c0.4,0.1,0.8,0.2,1.2,0.3l0.3,1.4l2.2,9.7l2.6-11.2c0.4-0.1,0.8-0.2,1.2-0.3
					c0.9-0.3,1.8-0.7,2.6-1.2c0.4-0.2,0.7-0.5,1-0.7l4.5,2.1l-2.1-4.6C33.8,31,34,30.6,34.2,30.3z"/>
			</g>
		</g>
	</g>
</g>
</svg>
