<?xml version="1.0" encoding="utf-8"?>
<!-- Generator: Adobe Illustrator 22.1.0, SVG Export Plug-In . SVG Version: 6.00 Build 0)  -->
<svg version="1.1" id="Layer_1" xmlns="http://www.w3.org/2000/svg" xmlns:xlink="http://www.w3.org/1999/xlink" x="0px" y="0px"
	 viewBox="0 0 47 47" style="enable-background:new 0 0 47 47;" xml:space="preserve">
<style type="text/css">
	.st0{fill:#E8C547;}
	.st1{filter:url(#Adobe_OpacityMaskFilter);}
	.st2{fill:#FFFFFF;}
	.st3{mask:url(#mask-2_1_);fill:#E8C547;}
</style>
<g id="Page-1_1_">
	<g id="iPhone-SE-Menu" transform="translate(-137.000000, -49.000000)">
		<g id="Page-1" transform="translate(137.000000, 48.000000)">
			<path id="Fill-1" class="st0" d="M37.1,21l1.7,0.4c-0.5-2.6-1.6-4.8-3.2-6.8l-0.7,1.6C35.9,17.6,36.6,19.2,37.1,21"/>
			<path id="Fill-3" class="st0" d="M15,36l-1.6,0.7c2,1.7,4.4,2.7,7.1,3.2L20,38.3C18.2,37.8,16.5,37.1,15,36"/>
			<path id="Fill-5" class="st0" d="M9.4,27.7l-1.7-0.4c0.5,2.7,1.7,5.1,3.4,7.2l0.7-1.6C10.6,31.3,9.8,29.6,9.4,27.7"/>
			<path id="Fill-7" class="st0" d="M26.7,38.2l-0.4,1.7c2.6-0.5,5-1.6,7-3.3l-1.6-0.7C30.2,37,28.5,37.7,26.7,38.2"/>
			<path id="Fill-9" class="st0" d="M34.8,32.6l0.7,1.6c1.6-2,2.7-4.3,3.2-6.9l-1.7,0.4C36.7,29.5,35.9,31.2,34.8,32.6"/>
			<path id="Fill-11" class="st0" d="M31.7,12.9l1.6-0.7c-2-1.7-4.3-2.8-7-3.3l0.4,1.7C28.5,11.1,30.2,11.8,31.7,12.9"/>
			<path id="Fill-13" class="st0" d="M11.8,15.9l-0.7-1.6c-1.7,2-2.8,4.4-3.4,7.1L9.4,21C9.9,19.2,10.7,17.5,11.8,15.9"/>
			<path id="Fill-15" class="st0" d="M20,10.5l0.4-1.7c-2.7,0.5-5,1.6-7.1,3.2l1.6,0.7C16.5,11.7,18.1,11,20,10.5"/>
			<g id="Group-19" transform="translate(0.000000, 0.701400)">
				<g id="Clip-18">
				</g>
				<defs>
					<filter id="Adobe_OpacityMaskFilter" filterUnits="userSpaceOnUse" x="0" y="0.3" width="46.7" height="46.7">
						<feColorMatrix  type="matrix" values="1 0 0 0 0  0 1 0 0 0  0 0 1 0 0  0 0 0 1 0"/>
					</filter>
				</defs>
				<mask maskUnits="userSpaceOnUse" x="0" y="0.3" width="46.7" height="46.7" id="mask-2_1_">
					<g class="st1">
						<polygon id="path-1_1_" class="st2" points="0,0.3 46.7,0.3 46.7,47 0,47 						"/>
					</g>
				</mask>
				<path id="Fill-17" class="st3" d="M26.2,34.2l1.2-6l6.4-1.6C32.8,30.3,29.9,33.2,26.2,34.2z M23.3,28.5c-2.7,0-4.9-2.2-4.9-4.9
					c0-2.7,2.2-4.9,4.9-4.9c2.7,0,4.9,2.2,4.9,4.9C28.2,26.3,26,28.5,23.3,28.5z M23.6,41.5l-0.4-1.8v-9.9l0,0c0.1,0,0.1,0,0.2,0
					c0.9,0,1.8-0.2,2.6-0.6L23.6,41.5z M19.8,34c-0.5-0.2-1.1-0.4-1.6-0.7c-1.4-0.7-2.6-1.7-3.5-2.9h0c-0.4-0.5-0.7-1-1-1.5h0
					c0-0.1-0.1-0.1-0.1-0.2c-0.2-0.5-0.5-1-0.7-1.5c-0.1-0.2-0.1-0.4-0.2-0.7l6,1.2c0,0,0,0,0,0l1.6,6.4C20.1,34.1,19.9,34,19.8,34
					C19.8,34,19.8,34,19.8,34z M5.5,23.6l0.1,0h11.4c0,1,0.2,1.9,0.7,2.8L5.5,23.6z M12.9,20.3c0,0,0-0.1,0-0.1
					c0-0.1,0.1-0.2,0.1-0.4c1.2-3.3,4-5.8,7.4-6.8l-1.2,5.8C19.2,19,19.1,19,19,19.1l-6.2,1.5C12.8,20.5,12.8,20.4,12.9,20.3z
					 M23.3,5.1l0.1,0.3v12c0,0,0,0-0.1,0c-0.9,0-1.7,0.2-2.4,0.5L23.3,5.1z M33.8,20.8L28,19.6c0,0-0.1-0.1-0.1-0.1l-1.5-6.3
					C30,14.2,32.8,17.1,33.8,20.8z M42.3,23.6l-0.6,0.1H29.5l0,0c0-0.1,0-0.2,0-0.2c0-1-0.2-1.9-0.7-2.8L42.3,23.6z M34,30
					c0.5-0.8,0.8-1.7,1.1-2.6c0.1-0.4,0.2-0.8,0.3-1.2l1.7-0.4l9.6-2.2L35.4,21c-0.1-0.4-0.2-0.8-0.3-1.2c-0.3-0.9-0.7-1.7-1.1-2.4
					c-0.2-0.4-0.5-0.7-0.7-1.1l2.1-4.6l-4.5,2.1c-0.3-0.2-0.7-0.5-1-0.7c-0.8-0.5-1.7-0.9-2.6-1.2c-0.4-0.1-0.8-0.2-1.2-0.3l-0.5-2
					l-2.2-9.2l-2.6,11.2c-0.4,0.1-0.8,0.2-1.2,0.3c-0.9,0.3-1.8,0.7-2.6,1.2c-0.4,0.2-0.7,0.5-1.1,0.7l-4.4-2l2,4.3
					c-0.3,0.3-0.5,0.7-0.7,1.1c-0.5,0.9-1,1.8-1.3,2.7c-0.1,0.4-0.2,0.8-0.3,1.2l-1.9,0.5l0,0L0,23.6l8.8,2.1l0,0l0.2,0l2.1,0.5
					c0.1,0.4,0.2,0.8,0.3,1.2c0.3,1,0.7,2,1.3,2.8c0.2,0.4,0.5,0.7,0.7,1l-2,4.4l4.4-2c0.3,0.3,0.7,0.5,1.1,0.7
					c0.8,0.5,1.7,0.9,2.7,1.2c0.4,0.1,0.8,0.2,1.2,0.3l0.3,1.4l2.2,9.7l2.6-11.2c0.4-0.1,0.8-0.2,1.2-0.3c0.9-0.3,1.8-0.7,2.6-1.2
					c0.4-0.2,0.7-0.5,1-0.7l4.5,2.1l-2.1-4.6C33.5,30.7,33.7,30.4,34,30z"/>
			</g>
		</g>
	</g>
</g>
</svg>
