<?xml version="1.0" encoding="utf-8"?>
<!-- Generator: Adobe Illustrator 22.1.0, SVG Export Plug-In . SVG Version: 6.00 Build 0)  -->
<svg version="1.1" id="Layer_1" xmlns="http://www.w3.org/2000/svg" xmlns:xlink="http://www.w3.org/1999/xlink" x="0px" y="0px"
	 viewBox="0 0 30 30" style="enable-background:new 0 0 30 30;" xml:space="preserve">
<style type="text/css">
	.st0{fill:#E8C547;}
</style>
<g id="Wireframes-Copy">
	<g id="About-Us" transform="translate(-151.000000, -2021.000000)">
		<g id="The-Team" transform="translate(149.000000, 901.000000)">
			<g id="Chris-Perke" transform="translate(1.000000, 130.000000)">
				<path id="C-Linkedin" class="st0" d="M16,990c-8.3,0-15,6.7-15,15c0,8.3,6.7,15,15,15c8.3,0,15-6.7,15-15
					C31,996.7,24.3,990,16,990L16,990z M12.3,1011.2h-3v-9.8h3V1011.2L12.3,1011.2z M10.8,1000.2c-1,0-1.6-0.7-1.6-1.5
					c0-0.9,0.6-1.5,1.6-1.5c1,0,1.6,0.7,1.6,1.5C12.4,999.6,11.8,1000.2,10.8,1000.2L10.8,1000.2z M23.4,1011.2h-3v-5.4
					c0-1.3-0.4-2.1-1.5-2.1c-0.8,0-1.3,0.6-1.6,1.1c-0.1,0.2-0.1,0.5-0.1,0.8v5.6h-3v-6.7c0-1.2,0-2.2-0.1-3.1h2.6l0.1,1.4h0.1
					c0.4-0.6,1.4-1.6,3-1.6c2,0,3.5,1.3,3.5,4.2L23.4,1011.2L23.4,1011.2z"/>
			</g>
		</g>
	</g>
</g>
</svg>
