<?xml version="1.0" encoding="utf-8"?>
<!-- Generator: Adobe Illustrator 22.1.0, SVG Export Plug-In . SVG Version: 6.00 Build 0)  -->
<svg version="1.1" id="Layer_1" xmlns="http://www.w3.org/2000/svg" xmlns:xlink="http://www.w3.org/1999/xlink" x="0px" y="0px"
	 viewBox="0 0 28 18" style="enable-background:new 0 0 28 18;" xml:space="preserve">
<style type="text/css">
	.st0{fill:#E8C547;}
</style>
<g id="Wireframes-Copy">
	<g id="About-Us" transform="translate(-544.000000, -2442.000000)">
		<g id="Form" transform="translate(147.000000, 2263.000000)">
			<path id="Mail" class="st0" d="M397.9,180.7c0.8,0.4,11.3,6,11.7,6.3c0.4,0.2,0.9,0.3,1.4,0.3s1-0.1,1.4-0.3
				c0.4-0.2,10.9-5.8,11.7-6.3c0.8-0.4,1.5-1.7,0.1-1.7h-26.3C396.4,179,397.2,180.3,397.9,180.7L397.9,180.7z M424.4,183.8
				c-0.9,0.4-11.5,6-12,6.3c-0.5,0.3-0.9,0.3-1.4,0.3s-0.9,0-1.4-0.3c-0.5-0.3-11.1-5.8-12-6.3c-0.6-0.3-0.6,0.1-0.6,0.3v11.4
				c0,0.7,0.9,1.5,1.5,1.5h24.9c0.7,0,1.5-0.8,1.5-1.5v-11.4C425,183.8,425,183.5,424.4,183.8L424.4,183.8z"/>
		</g>
	</g>
</g>
</svg>
