<?xml version="1.0" encoding="utf-8"?>
<!-- Generator: Adobe Illustrator 22.1.0, SVG Export Plug-In . SVG Version: 6.00 Build 0)  -->
<svg version="1.1" id="Layer_1" xmlns="http://www.w3.org/2000/svg" xmlns:xlink="http://www.w3.org/1999/xlink" x="0px" y="0px"
	 viewBox="0 0 218 47" style="enable-background:new 0 0 218 47;" xml:space="preserve">
<style type="text/css">
	.st0{fill:#E8C547;}
	.st1{filter:url(#Adobe_OpacityMaskFilter);}
	.st2{fill:#FFFFFF;}
	.st3{mask:url(#mask-2_1_);fill:#E8C547;}
</style>
<g id="Page-1_1_">
	<g id="Tablet-Home-Full" transform="translate(-36.000000, -93.000000)">
		<g id="Page-1" transform="translate(36.000000, 92.000000)">
			<path id="Fill-1" class="st0" d="M55.9,36h4.7l-1.5-4.3c-0.3-0.8-0.5-1.5-0.8-1.9L55.9,36z M54,27.7c0.8-0.3,1.6-0.5,2.3-0.5
				c0.6,0,1.2,0.2,1.9,0.7c0.4,0.2,0.8,0.7,1.2,1.4c0.3,0.5,0.7,1.4,1.1,2.7l2.2,6.4c0.5,1.4,1,2.6,1.6,3.4c0.5,0.8,1,1.5,1.5,1.9
				c0.4,0.4,0.9,0.7,1.4,0.9c0.5,0.2,0.9,0.3,1.2,0.3c0.3,0,0.6,0,0.8-0.1l0,0.2c-0.6,0.2-1.2,0.3-1.7,0.3c-0.6,0-1.1-0.1-1.7-0.4
				c-0.6-0.3-1.1-0.7-1.6-1.2c-1.1-1.1-1.9-2.7-2.7-4.9l-0.7-2.1h-5l-1.3,3.3c-0.1,0.1-0.1,0.3-0.1,0.4s0.1,0.3,0.2,0.5
				s0.3,0.2,0.6,0.2h0.1v0.2h-3.7V41h0.2c0.3,0,0.6-0.1,0.9-0.3c0.3-0.2,0.5-0.4,0.7-0.8L57.9,29c-0.7-0.9-1.5-1.4-2.5-1.4
				c-0.4,0-0.9,0.1-1.4,0.3L54,27.7z"/>
			<path id="Fill-3" class="st0" d="M68.6,28.8v11.8h3.6c1,0,1.9-0.2,2.7-0.7c0.8-0.5,1.4-1.2,1.8-2.1c0.4-0.9,0.7-1.9,0.7-3.1
				c0-1.8-0.5-3.2-1.4-4.3c-1-1.1-2.2-1.6-3.8-1.6H68.6z M77,30.1c1.2,1.2,1.8,2.7,1.8,4.7c0,1.9-0.6,3.5-1.8,4.7
				c-1.2,1.2-2.8,1.8-4.8,1.8H66V41h0.2c0.3,0,0.6-0.1,0.8-0.3c0.2-0.2,0.3-0.5,0.4-0.8V29.5c0-0.3-0.1-0.5-0.4-0.7
				c-0.2-0.2-0.5-0.3-0.8-0.3H66l0-0.2h6.2C74.2,28.3,75.8,28.9,77,30.1z"/>
			<path id="Fill-5" class="st0" d="M89.2,28.3h3.7v0.2h-0.2c-0.3,0-0.6,0.1-0.9,0.3c-0.3,0.2-0.5,0.5-0.7,0.9l-4.4,9.9
				c-0.5,1-0.7,1.6-0.7,1.9h-0.2l-5.2-11.8c-0.2-0.4-0.4-0.7-0.7-0.9c-0.3-0.2-0.6-0.3-0.9-0.3h-0.1v-0.2h4.1v0.2h-0.2
				c-0.3,0-0.5,0.1-0.6,0.2c-0.1,0.2-0.2,0.3-0.2,0.5c0,0.1,0,0.3,0.1,0.4l3.8,9.6l4-9.6c0-0.1,0.1-0.3,0.1-0.4
				c0-0.1-0.1-0.3-0.2-0.5c-0.1-0.2-0.3-0.2-0.6-0.2h-0.2V28.3z"/>
			<path id="Fill-7" class="st0" d="M94.1,41c0.3,0,0.6-0.1,0.8-0.3c0.2-0.2,0.3-0.5,0.4-0.8V29.6c0-0.3-0.1-0.6-0.4-0.8
				c-0.2-0.2-0.5-0.3-0.8-0.3h-0.2v-0.2h4v0.2h-0.2c-0.3,0-0.6,0.1-0.8,0.3c-0.2,0.2-0.3,0.5-0.4,0.8v10.2c0,0.3,0.1,0.6,0.3,0.8
				c0.2,0.2,0.5,0.3,0.8,0.3h0.2v0.2h-4V41H94.1z"/>
			<path id="Fill-9" class="st0" d="M100.1,40.4c0-0.2-0.1-0.5-0.1-1c0-0.5,0.1-1,0.3-1.6h0.2c0,0.1,0,0.3,0,0.4
				c0,0.7,0.2,1.4,0.7,1.9c0.5,0.5,1.1,0.7,1.8,0.7c0.8,0,1.4-0.2,1.9-0.7c0.5-0.5,0.7-1.1,0.7-1.8c0-0.7-0.2-1.3-0.7-1.7l-3.5-3.3
				c-0.7-0.6-1-1.4-1-2.2c0-0.9,0.3-1.6,0.9-2.2c0.6-0.6,1.4-0.9,2.4-0.9c0.5,0,1,0.1,1.6,0.2h0.7v2.3h-0.2c0-0.6-0.2-1-0.6-1.4
				c-0.4-0.3-0.9-0.5-1.5-0.5s-1.2,0.2-1.6,0.6c-0.4,0.4-0.6,0.9-0.6,1.6s0.2,1.2,0.7,1.6l3.6,3.3c0.6,0.6,0.9,1.3,0.9,2.3
				c0,1-0.3,1.8-0.9,2.4c-0.6,0.6-1.5,0.9-2.5,0.9c-0.5,0-1.1-0.1-1.7-0.2C100.9,41,100.4,40.8,100.1,40.4"/>
			<path id="Fill-11" class="st0" d="M111.4,39.2c1,1.1,2.4,1.7,4.1,1.7s3.1-0.6,4.1-1.7c1-1.1,1.6-2.6,1.6-4.5
				c0-1.8-0.5-3.3-1.6-4.5c-1-1.1-2.4-1.7-4.1-1.7s-3.1,0.6-4.1,1.7c-1,1.1-1.6,2.6-1.6,4.5C109.9,36.6,110.4,38.1,111.4,39.2
				 M110.4,29.9c1.3-1.2,3-1.8,5.1-1.8c2.1,0,3.8,0.6,5.1,1.8c1.3,1.2,2,2.9,2,4.8c0,2-0.7,3.6-2,4.9c-1.3,1.2-3,1.8-5.1,1.8
				c-2.1,0-3.8-0.6-5.1-1.8c-1.3-1.2-2-2.8-2-4.9C108.4,32.7,109.1,31.1,110.4,29.9"/>
			<path id="Fill-13" class="st0" d="M127.9,28.9h-1.2v11c0,0.3,0.1,0.6,0.3,0.8s0.5,0.3,0.8,0.3h0.2l0,0.2h-4V41h0.2
				c0.3,0,0.6-0.1,0.8-0.3c0.2-0.2,0.3-0.5,0.4-0.8V29.6c0-0.3-0.1-0.6-0.4-0.8c-0.2-0.2-0.5-0.3-0.8-0.3h-0.2v-0.2h5
				c1.1,0,2,0.3,2.6,0.9c0.6,0.6,1,1.4,1,2.4s-0.3,1.8-0.9,2.6c-0.6,0.7-1.3,1.1-2.2,1.1c0.2,0.1,0.4,0.3,0.7,0.5
				c0.3,0.3,0.5,0.5,0.7,0.8c1.1,1.5,1.7,2.4,2.1,2.8c0.3,0.4,0.5,0.6,0.7,0.7c0.1,0.1,0.3,0.3,0.4,0.4c0.2,0.1,0.3,0.2,0.5,0.3
				c0.4,0.2,0.7,0.3,1.1,0.3v0.2h-1c-0.5,0-1-0.1-1.5-0.3c-0.5-0.2-0.8-0.4-1-0.6c-0.2-0.2-0.4-0.4-0.6-0.6
				c-0.2-0.2-0.6-0.8-1.4-1.9c-0.7-1.1-1.2-1.7-1.3-1.8c-0.1-0.2-0.3-0.3-0.4-0.5c-0.4-0.4-0.8-0.6-1.2-0.6v-0.2c0.1,0,0.2,0,0.4,0
				c0.2,0,0.4,0,0.6,0c1.5,0,2.5-0.7,2.9-1.9c0.1-0.2,0.1-0.5,0.1-0.7v-0.4c0-0.8-0.2-1.5-0.6-2c-0.4-0.5-1-0.8-1.6-0.8
				C128.7,28.9,128.3,28.9,127.9,28.9"/>
			<path id="Fill-15" class="st0" d="M136.3,40.4c0-0.2-0.1-0.5-0.1-1c0-0.5,0.1-1,0.3-1.6h0.2c0,0.1,0,0.3,0,0.4
				c0,0.7,0.2,1.4,0.7,1.9c0.5,0.5,1.1,0.7,1.8,0.7c0.8,0,1.4-0.2,1.9-0.7c0.5-0.5,0.7-1.1,0.7-1.8c0-0.7-0.2-1.3-0.7-1.7l-3.5-3.3
				c-0.7-0.6-1-1.4-1-2.2c0-0.9,0.3-1.6,0.9-2.2c0.6-0.6,1.4-0.9,2.4-0.9c0.5,0,1,0.1,1.6,0.2h0.7v2.3h-0.2c0-0.6-0.2-1-0.6-1.4
				c-0.4-0.3-0.9-0.5-1.5-0.5c-0.6,0-1.1,0.2-1.6,0.6c-0.4,0.4-0.6,0.9-0.6,1.6s0.2,1.2,0.7,1.6l3.6,3.3c0.6,0.6,0.9,1.3,0.9,2.3
				c0,1-0.3,1.8-0.9,2.4c-0.6,0.6-1.5,0.9-2.5,0.9c-0.5,0-1.1-0.1-1.7-0.2C137.1,41,136.6,40.8,136.3,40.4"/>
			<path id="Fill-17" class="st0" d="M58,5.9c1.1,0,2,0.3,2.7,0.8c1,0.7,1.4,1.8,1.4,3.2c0,1.1-0.3,2-0.9,2.7
				c-0.6,0.8-1.5,1.2-2.7,1.2c-0.6,0-1.1-0.1-1.6-0.4c-0.5-0.3-0.8-0.8-0.9-1.5l0.2-0.1c0.1,0.5,0.4,0.9,0.9,1.1
				c0.3,0.1,0.6,0.2,0.9,0.2c1,0,1.7-0.4,2.2-1.2c0.3-0.6,0.5-1.3,0.5-2.1c0-1.3-0.4-2.2-1.1-2.8c-0.5-0.4-1.2-0.7-2.1-0.7
				c-0.2,0-0.4,0-0.5,0c-0.1,0-0.8,0.1-1.9,0.3v10.9c0,0.3,0.1,0.6,0.4,0.8c0.2,0.2,0.5,0.3,0.8,0.3h0.2v0.2h-4v-0.2h0.2
				c0.3,0,0.6-0.1,0.8-0.3c0.2-0.2,0.4-0.5,0.4-0.8v-10c0-0.3-0.1-0.6-0.3-0.7c-0.2-0.2-0.4-0.3-0.7-0.3c-0.1,0-0.1,0-0.2,0l-0.2,0
				l0-0.2c0.6-0.1,1.5-0.2,2.6-0.4c1.1-0.2,1.7-0.3,2-0.3C57.4,5.9,57.7,5.9,58,5.9"/>
			<path id="Fill-19" class="st0" d="M66.7,17.1c1,1.1,2.4,1.7,4.1,1.7c1.7,0,3.1-0.6,4.1-1.7s1.6-2.6,1.6-4.5
				c0-1.8-0.5-3.3-1.6-4.5s-2.4-1.7-4.1-1.7c-1.7,0-3.1,0.6-4.1,1.7c-1,1.1-1.6,2.6-1.6,4.5C65.2,14.5,65.7,16,66.7,17.1 M65.7,7.8
				C67,6.6,68.8,6,70.8,6c2.1,0,3.8,0.6,5.1,1.8c1.3,1.2,2,2.8,2,4.8s-0.7,3.6-2,4.8c-1.3,1.2-3,1.9-5.1,1.9c-2.1,0-3.8-0.6-5.1-1.9
				s-2-2.8-2-4.8S64.4,9,65.7,7.8"/>
			<path id="Fill-21" class="st0" d="M82,6.8v11.8h3.6c1,0,1.9-0.2,2.7-0.7c0.8-0.5,1.4-1.2,1.8-2.1c0.4-0.9,0.7-1.9,0.7-3.1
				c0-1.8-0.5-3.2-1.4-4.3c-1-1.1-2.2-1.6-3.8-1.6H82z M90.4,8c1.2,1.2,1.8,2.7,1.8,4.7s-0.6,3.5-1.8,4.7c-1.2,1.2-2.8,1.8-4.8,1.8
				h-6.2v-0.2h0.2c0.3,0,0.6-0.1,0.8-0.3c0.2-0.2,0.3-0.5,0.4-0.8V7.5c0-0.3-0.1-0.5-0.4-0.7c-0.2-0.2-0.5-0.3-0.8-0.3h-0.2l0-0.2
				h6.2C87.6,6.2,89.2,6.8,90.4,8z"/>
			<path id="Fill-23" class="st0" d="M94.1,18.9c0.3,0,0.6-0.1,0.8-0.3c0.2-0.2,0.3-0.5,0.4-0.8V7.5c0-0.3-0.1-0.5-0.3-0.7
				s-0.5-0.3-0.8-0.3h-0.2l0-0.2h5.4c0.4,0,0.8,0,1.2-0.1c0.4-0.1,0.8-0.1,0.9-0.2v2.3h-0.2V7.9c0-0.3-0.1-0.5-0.3-0.8
				c-0.2-0.2-0.4-0.3-0.7-0.3h-3.8v5.7h3.1c0.2,0,0.5-0.1,0.6-0.3c0.2-0.2,0.3-0.4,0.3-0.6v-0.3h0.2v2.9h-0.2v-0.3
				c0-0.2-0.1-0.5-0.2-0.6c-0.2-0.2-0.4-0.3-0.6-0.3h-3.1v5.5h2.6c0.9,0,1.6-0.2,2.1-0.6c0.5-0.4,0.9-1,1.2-1.8h0.2l-1.1,3h-7.6
				v-0.2H94.1z"/>
			<path id="Fill-25" class="st0" d="M104.5,18.4c0-0.2-0.1-0.5-0.1-1c0-0.5,0.1-1,0.3-1.6h0.2c0,0.1,0,0.3,0,0.4
				c0,0.7,0.2,1.4,0.7,1.9c0.5,0.5,1.1,0.7,1.8,0.7c0.8,0,1.4-0.2,1.9-0.7c0.5-0.5,0.7-1.1,0.7-1.8c0-0.7-0.2-1.3-0.7-1.7l-3.5-3.3
				c-0.7-0.6-1-1.4-1-2.2c0-0.9,0.3-1.6,0.9-2.2C106.2,6.3,107,6,108,6c0.5,0,1,0.1,1.6,0.2h0.7v2.3h-0.2c0-0.6-0.2-1-0.6-1.4
				c-0.4-0.3-0.9-0.5-1.5-0.5s-1.1,0.2-1.6,0.6c-0.4,0.4-0.6,0.9-0.6,1.6c0,0.6,0.2,1.2,0.7,1.6l3.6,3.3c0.6,0.6,0.9,1.3,0.9,2.3
				c0,1-0.3,1.8-0.9,2.4c-0.6,0.6-1.5,0.9-2.5,0.9c-0.5,0-1.1-0.1-1.7-0.2C105.3,18.9,104.8,18.7,104.5,18.4"/>
			<path id="Fill-27" class="st0" d="M123,7.9c0-0.3-0.1-0.5-0.3-0.8c-0.2-0.2-0.5-0.3-0.7-0.3h-3.5v11c0,0.3,0.1,0.6,0.4,0.8
				c0.2,0.2,0.5,0.3,0.8,0.3h0.2v0.2h-4v-0.2h0.2c0.3,0,0.6-0.1,0.8-0.3c0.2-0.2,0.3-0.5,0.4-0.8v-11h-3.5c-0.3,0-0.5,0.1-0.7,0.3
				c-0.2,0.2-0.3,0.5-0.3,0.8v0.3l-0.2,0V5.9c0.2,0.1,0.5,0.1,1,0.2c0.5,0.1,0.9,0.1,1.3,0.1h6.2c0.6,0,1.1,0,1.5-0.1
				c0.4-0.1,0.6-0.2,0.7-0.2v2.3l-0.2,0V7.9z"/>
			<path id="Fill-29" class="st0" d="M126.4,14.1h4.5l-2.2-5.9L126.4,14.1z M135.4,18.9h0.1v0.2h-4.1v-0.2h0.2
				c0.3,0,0.5-0.1,0.6-0.2s0.2-0.3,0.2-0.5c0-0.1,0-0.3-0.1-0.4l-1.2-3.1h-5l-1.2,3.1c0,0.1-0.1,0.3-0.1,0.4c0,0.1,0.1,0.3,0.2,0.5
				s0.3,0.2,0.6,0.2h0.2v0.2h-3.7v-0.2h0.2c0.3,0,0.6-0.1,0.9-0.3c0.3-0.2,0.5-0.5,0.7-0.9l4.2-9.9c0.5-1,0.7-1.6,0.7-1.9h0.2
				l4.9,11.8c0.2,0.4,0.4,0.7,0.7,0.9C134.8,18.8,135.1,18.9,135.4,18.9z"/>
			<path id="Fill-31" class="st0" d="M154.6,12.6c0,2.1-0.6,3.8-1.7,4.9c-1.1,1.2-2.7,1.8-4.8,1.8c-1.4,0-2.7-0.3-3.8-0.9
				c-1.1-0.6-2-1.4-2.6-2.4c-0.6-1-0.9-2.2-0.9-3.4s0.3-2.4,0.9-3.4c0.6-1,1.5-1.8,2.5-2.4c1.1-0.6,2.3-0.9,3.6-0.9
				c0.8,0,1.7,0.1,2.5,0.3c0.9,0.2,1.6,0.5,2.2,0.9l0.4,2.6h-0.2c-0.3-1-0.9-1.8-1.8-2.4c-0.9-0.6-2-0.9-3.1-0.9
				c-1.6,0-3,0.6-4.1,1.7c-1.1,1.2-1.6,2.6-1.6,4.4c0,1.8,0.6,3.2,1.7,4.4c1.1,1.2,2.6,1.8,4.4,1.8c1.8,0,3.3-0.6,4.4-1.8
				c1.1-1.2,1.7-2.8,1.7-4.8h0.2C154.6,12.4,154.6,12.5,154.6,12.6"/>
			<path id="Fill-33" class="st0" d="M158.9,14.1h4.5l-2.2-5.9L158.9,14.1z M168,18.9h0.1v0.2H164v-0.2h0.2c0.3,0,0.5-0.1,0.6-0.2
				s0.2-0.3,0.2-0.5c0-0.1,0-0.3-0.1-0.4l-1.2-3.1h-5l-1.2,3.1c0,0.1-0.1,0.3-0.1,0.4c0,0.1,0.1,0.3,0.2,0.5
				c0.1,0.2,0.3,0.2,0.6,0.2h0.2v0.2h-3.7v-0.2h0.2c0.3,0,0.6-0.1,0.9-0.3c0.3-0.2,0.5-0.5,0.7-0.9l4.2-9.9c0.5-1,0.7-1.6,0.7-1.9
				h0.2l4.9,11.8c0.2,0.4,0.4,0.7,0.7,0.9C167.3,18.8,167.6,18.9,168,18.9z"/>
			<path id="Fill-35" class="st0" d="M177.6,9.8c0,0.5-0.1,1-0.3,1.5c-0.4,0.9-1.1,1.5-2.1,1.8c-0.4,0.1-0.7,0.2-0.9,0.2
				c-0.8,0-1.4-0.1-2-0.4v-0.2c0.9,0.2,1.7,0.1,2.5-0.3c0.7-0.3,1.1-0.9,1.4-1.7c0.1-0.2,0.1-0.5,0.1-0.7V9.6c0-0.9-0.3-1.5-0.7-2.1
				s-1-0.8-1.8-0.8h-2.1v11c0,0.3,0.1,0.6,0.4,0.8c0.2,0.2,0.5,0.3,0.8,0.3h0.2v0.2h-4v-0.2h0.2c0.3,0,0.6-0.1,0.8-0.3
				c0.2-0.2,0.3-0.5,0.4-0.8V7.5c0-0.3-0.2-0.6-0.4-0.8c-0.2-0.2-0.5-0.3-0.8-0.3H169l0-0.2h4.8c1.2,0,2.1,0.3,2.8,0.9
				C177.2,7.8,177.6,8.7,177.6,9.8"/>
			<path id="Fill-37" class="st0" d="M179.8,18.9c0.3,0,0.6-0.1,0.8-0.3c0.2-0.2,0.3-0.5,0.4-0.8V7.5c0-0.3-0.1-0.6-0.4-0.8
				c-0.2-0.2-0.5-0.3-0.8-0.3h-0.2V6.2h4v0.2h-0.2c-0.3,0-0.6,0.1-0.8,0.3c-0.2,0.2-0.3,0.5-0.4,0.8v10.2c0,0.3,0.1,0.6,0.3,0.8
				c0.2,0.2,0.5,0.3,0.8,0.3h0.2v0.2h-4v-0.2H179.8z"/>
			<path id="Fill-39" class="st0" d="M195.5,7.9c0-0.3-0.1-0.5-0.3-0.8c-0.2-0.2-0.5-0.3-0.7-0.3H191v11c0,0.3,0.1,0.6,0.4,0.8
				c0.2,0.2,0.5,0.3,0.8,0.3h0.2v0.2h-4v-0.2h0.2c0.3,0,0.6-0.1,0.8-0.3c0.2-0.2,0.3-0.5,0.4-0.8v-11h-3.5c-0.3,0-0.5,0.1-0.7,0.3
				c-0.2,0.2-0.3,0.5-0.3,0.8v0.3l-0.2,0V5.9c0.2,0.1,0.5,0.1,1,0.2c0.5,0.1,0.9,0.1,1.3,0.1h6.2c0.6,0,1.1,0,1.5-0.1
				c0.4-0.1,0.6-0.2,0.7-0.2v2.3l-0.2,0V7.9z"/>
			<path id="Fill-41" class="st0" d="M198.9,14.1h4.5l-2.2-5.9L198.9,14.1z M207.9,18.9h0.1v0.2h-4.1v-0.2h0.2
				c0.3,0,0.5-0.1,0.6-0.2c0.1-0.2,0.2-0.3,0.2-0.5c0-0.1,0-0.3-0.1-0.4l-1.2-3.1h-5l-1.2,3.1c-0.1,0.1-0.1,0.3-0.1,0.4
				c0,0.1,0.1,0.3,0.2,0.5c0.1,0.2,0.3,0.2,0.6,0.2h0.2v0.2h-3.7v-0.2h0.2c0.3,0,0.6-0.1,0.9-0.3c0.3-0.2,0.5-0.5,0.7-0.9l4.2-9.9
				c0.5-1,0.7-1.6,0.7-1.9h0.2l4.9,11.8c0.2,0.4,0.4,0.7,0.7,0.9C207.3,18.8,207.6,18.9,207.9,18.9z"/>
			<path id="Fill-43" class="st0" d="M209.2,18.9c0.3,0,0.6-0.1,0.8-0.3c0.2-0.2,0.3-0.5,0.4-0.8V7.6c0-0.3-0.1-0.6-0.4-0.8
				c-0.2-0.2-0.5-0.3-0.8-0.3h-0.2V6.2h4v0.2h-0.2c-0.4,0-0.8,0.2-1,0.6c-0.1,0.2-0.2,0.4-0.2,0.6v11h2.6c0.9,0,1.6-0.2,2.1-0.6
				c0.5-0.4,0.9-1,1.2-1.8h0.2l-1.1,3h-7.6v-0.2H209.2z"/>
			<path id="Fill-45" class="st0" d="M36.8,20.8l1.6,0.4c-0.5-2.6-1.6-4.8-3.1-6.8l-0.7,1.6C35.6,17.5,36.3,19.1,36.8,20.8"/>
			<path id="Fill-47" class="st0" d="M14.9,35.7l-1.6,0.7c2,1.6,4.4,2.7,7,3.2L19.9,38C18,37.6,16.4,36.8,14.9,35.7"/>
			<path id="Fill-49" class="st0" d="M9.3,27.5l-1.7-0.4c0.5,2.7,1.7,5.1,3.4,7.2l0.7-1.6C10.6,31.1,9.8,29.4,9.3,27.5"/>
			<path id="Fill-51" class="st0" d="M26.5,37.9l-0.4,1.7c2.6-0.5,4.9-1.6,6.9-3.3l-1.6-0.7C30,36.7,28.3,37.5,26.5,37.9"/>
			<path id="Fill-53" class="st0" d="M34.6,32.4l0.7,1.6c1.6-2,2.6-4.3,3.1-6.9l-1.7,0.4C36.4,29.3,35.6,30.9,34.6,32.4"/>
			<path id="Fill-55" class="st0" d="M31.4,12.8l1.6-0.7c-2-1.7-4.3-2.8-6.9-3.3l0.4,1.7C28.3,11,30,11.8,31.4,12.8"/>
			<path id="Fill-57" class="st0" d="M11.7,15.8L11,14.2c-1.7,2-2.8,4.4-3.3,7l1.7-0.4C9.8,19,10.6,17.3,11.7,15.8"/>
			<path id="Fill-59" class="st0" d="M19.9,10.5l0.4-1.7c-2.7,0.5-5,1.6-7,3.2l1.6,0.7C16.3,11.7,18,10.9,19.9,10.5"/>
			<g id="Group-63" transform="translate(0.000000, 0.358100)">
				<g id="Clip-62">
				</g>
				<defs>
					<filter id="Adobe_OpacityMaskFilter" filterUnits="userSpaceOnUse" x="0" y="0.6" width="46.4" height="46.4">
						<feColorMatrix  type="matrix" values="1 0 0 0 0  0 1 0 0 0  0 0 1 0 0  0 0 0 1 0"/>
					</filter>
				</defs>
				<mask maskUnits="userSpaceOnUse" x="0" y="0.6" width="46.4" height="46.4" id="mask-2_1_">
					<g class="st1">
						<polygon id="path-1_1_" class="st2" points="0,0.6 46.4,0.6 46.4,47 0,47 						"/>
					</g>
				</mask>
				<path id="Fill-61" class="st3" d="M26,34.3l1.2-5.9l6.3-1.5C32.5,30.4,29.6,33.3,26,34.3z M23.1,28.6c-2.7,0-4.9-2.2-4.9-4.9
					c0-2.7,2.2-4.9,4.9-4.9c2.7,0,4.9,2.2,4.9,4.9C28,26.4,25.8,28.6,23.1,28.6z M23.4,41.5L23,39.8v-9.9l0,0c0.1,0,0.1,0,0.2,0
					c0.9,0,1.8-0.2,2.5-0.6L23.4,41.5z M19.6,34.1c-0.5-0.2-1.1-0.4-1.6-0.7c-1.4-0.7-2.5-1.7-3.5-2.9h0c-0.4-0.5-0.7-1-1-1.5h0
					c0-0.1-0.1-0.1-0.1-0.2c-0.2-0.5-0.5-1-0.7-1.5c-0.1-0.2-0.1-0.4-0.2-0.7l6,1.2l0,0l1.5,6.3C20,34.2,19.8,34.1,19.6,34.1
					C19.6,34.1,19.6,34.1,19.6,34.1z M5.5,23.8l0.1,0H17c0,1,0.2,1.9,0.7,2.7L5.5,23.8z M12.8,20.5c0,0,0-0.1,0-0.1
					c0-0.1,0.1-0.2,0.1-0.4c1.2-3.3,4-5.8,7.4-6.7l-1.2,5.8c-0.1,0.1-0.2,0.1-0.2,0.2l-6.2,1.5C12.7,20.7,12.8,20.6,12.8,20.5z
					 M23.1,5.5l0.1,0.3v11.9c0,0,0,0-0.1,0c-0.9,0-1.7,0.2-2.4,0.5L23.1,5.5z M33.6,21l-5.8-1.2c0,0-0.1-0.1-0.1-0.1l-1.5-6.3
					C29.8,14.5,32.6,17.3,33.6,21z M42,23.8l-0.6,0.1H29.3l0,0c0-0.1,0-0.1,0-0.2c0-1-0.2-1.9-0.7-2.8L42,23.8z M33.7,30.1
					c0.5-0.8,0.8-1.6,1.1-2.5c0.1-0.4,0.2-0.8,0.3-1.2l1.7-0.4l9.5-2.2l-11.2-2.6c-0.1-0.4-0.2-0.8-0.3-1.2
					c-0.3-0.9-0.7-1.7-1.1-2.4c-0.2-0.4-0.5-0.7-0.7-1.1l2.1-4.5l-4.5,2.1c-0.3-0.2-0.7-0.5-1-0.7c-0.8-0.5-1.7-0.9-2.6-1.2
					c-0.4-0.1-0.8-0.2-1.2-0.3l-0.5-2l-2.1-9.2l-2.6,11.1c-0.4,0.1-0.8,0.2-1.2,0.3c-0.9,0.3-1.8,0.7-2.6,1.2
					c-0.4,0.2-0.7,0.5-1.1,0.7L11.4,12l1.9,4.3c-0.3,0.3-0.5,0.7-0.7,1c-0.5,0.8-1,1.7-1.3,2.7c-0.1,0.4-0.2,0.7-0.3,1.1l-1.9,0.5
					l0,0L0,23.8l8.8,2l0,0l0.2,0l2,0.5c0.1,0.4,0.2,0.8,0.3,1.2c0.3,1,0.7,1.9,1.3,2.8c0.2,0.4,0.5,0.7,0.7,1l-1.9,4.3l4.3-2
					c0.3,0.3,0.7,0.5,1.1,0.7c0.8,0.5,1.7,0.9,2.7,1.2c0.4,0.1,0.8,0.2,1.1,0.3l0.3,1.4l2.2,9.6l2.6-11.1c0.4-0.1,0.8-0.2,1.2-0.3
					c0.9-0.3,1.8-0.7,2.6-1.2c0.3-0.2,0.7-0.5,1-0.7l4.5,2.1L33,31.2C33.3,30.9,33.5,30.5,33.7,30.1z"/>
			</g>
		</g>
	</g>
</g>
</svg>
