<?xml version="1.0" encoding="utf-8"?>
<!-- Generator: Adobe Illustrator 22.1.0, SVG Export Plug-In . SVG Version: 6.00 Build 0)  -->
<svg version="1.1" id="Layer_1" xmlns="http://www.w3.org/2000/svg" xmlns:xlink="http://www.w3.org/1999/xlink" x="0px" y="0px"
	 viewBox="0 0 88 88" style="enable-background:new 0 0 88 88;" xml:space="preserve">
<style type="text/css">
	.st0{fill:#E8C547;}
	.st1{filter:url(#Adobe_OpacityMaskFilter);}
	.st2{fill:#FFFFFF;}
	.st3{mask:url(#mask-2_1_);fill:#E8C547;}
</style>
<g id="Page-1_1_">
	<g id="PCA-Menu" transform="translate(-340.000000, -141.000000)">
		<g id="Page-1" transform="translate(340.000000, 141.000000)">
			<path id="Fill-1" class="st0" d="M69,38.3l3,0.7c-0.9-4.9-2.8-9.2-5.7-13L65,29.1C66.9,31.8,68.2,34.9,69,38.3"/>
			<path id="Fill-3" class="st0" d="M28,66l-3,1.3c3.8,2.9,8.1,4.8,13,5.7l-0.7-2.9C33.9,69.3,30.8,67.9,28,66"/>
			<path id="Fill-5" class="st0" d="M17.3,50.8L14,50c1,5.3,3.3,10,6.6,14l1.4-3.1C19.8,57.9,18.2,54.5,17.3,50.8"/>
			<path id="Fill-7" class="st0" d="M49.7,70.7L49,74c4.9-1.1,9.3-3.2,13-6.6L59.1,66C56.3,68.2,53.2,69.7,49.7,70.7"/>
			<path id="Fill-9" class="st0" d="M65,60l1.3,3c2.9-3.8,4.8-8.1,5.7-13l-3,0.7C68.2,54.1,66.9,57.2,65,60"/>
			<path id="Fill-11" class="st0" d="M59,24l3-1.4c-3.7-3.3-8.1-5.5-13-6.6l0.7,3.3C53.2,20.3,56.3,21.8,59,24"/>
			<path id="Fill-13" class="st0" d="M22,28.9L20.6,26c-3.4,3.7-5.6,8.1-6.6,13l3.3-0.7C18.2,34.8,19.8,31.7,22,28.9"/>
			<path id="Fill-15" class="st0" d="M37.3,18.9L38,16c-4.9,0.9-9.3,2.8-13,5.7l3,1.3C30.7,21.1,33.8,19.7,37.3,18.9"/>
			<g id="Group-19">
				<g id="Clip-18">
				</g>
				<defs>
					<filter id="Adobe_OpacityMaskFilter" filterUnits="userSpaceOnUse" x="0" y="0.6" width="87.4" height="87.4">
						<feColorMatrix  type="matrix" values="1 0 0 0 0  0 1 0 0 0  0 0 1 0 0  0 0 0 1 0"/>
					</filter>
				</defs>
				<mask maskUnits="userSpaceOnUse" x="0" y="0.6" width="87.4" height="87.4" id="mask-2_1_">
					<g class="st1">
						<polygon id="path-1_1_" class="st2" points="0,0.6 87.4,0.6 87.4,88 0,88 						"/>
					</g>
				</mask>
				<path id="Fill-17" class="st3" d="M49.1,64l2.3-11.1l11.9-2.9C61.3,56.8,55.9,62.1,49.1,64z M43.6,53.3c-5.1,0-9.2-4.1-9.2-9.2
					c0-5.1,4.1-9.2,9.2-9.2c5.1,0,9.2,4.1,9.2,9.2C52.8,49.2,48.7,53.3,43.6,53.3z M44.1,77.7l-0.8-3.4V55.8l-0.1,0
					c0.1,0,0.2,0,0.3,0c1.7,0,3.3-0.4,4.8-1L44.1,77.7z M37,63.7c-1-0.4-2-0.8-2.9-1.3c-2.6-1.3-4.8-3.2-6.6-5.5h0.1
					c-0.7-0.9-1.4-1.9-1.9-2.9h0c-0.1-0.1-0.1-0.2-0.2-0.3c-0.5-0.9-0.9-1.9-1.2-2.9c-0.1-0.4-0.3-0.8-0.4-1.3L35.1,52
					c0,0,0,0,0.1,0.1L38,63.9C37.7,63.8,37.3,63.7,37,63.7C37,63.7,37,63.7,37,63.7z M10.4,44.3l0.3-0.1H32c0,1.9,0.5,3.6,1.3,5.2
					L10.4,44.3z M24.1,38.1c0-0.1,0-0.2,0.1-0.2c0.1-0.2,0.2-0.5,0.3-0.7c2.3-6.2,7.5-10.9,13.9-12.6l-2.2,10.9
					c-0.1,0.1-0.3,0.3-0.4,0.4L24,38.6C24,38.4,24.1,38.3,24.1,38.1z M43.6,9.6l0.1,0.5v22.5c0,0-0.1,0-0.1,0
					c-1.6,0-3.1,0.3-4.5,0.9L43.6,9.6z M63.4,38.9l-10.9-2.3c-0.1-0.1-0.1-0.1-0.2-0.2l-2.9-11.8C56.2,26.6,61.5,32.1,63.4,38.9z
					 M79.2,44.3l-1.1,0.2H55.2l0,0.1c0-0.1,0-0.3,0-0.4c0-1.9-0.5-3.6-1.2-5.2L79.2,44.3z M63.6,56.2c0.9-1.5,1.6-3.1,2.1-4.8
					c0.2-0.7,0.4-1.5,0.6-2.2l3.2-0.8l17.9-4.2l-21.2-4.9c-0.1-0.8-0.3-1.5-0.6-2.2c-0.5-1.6-1.2-3.1-2.1-4.6
					c-0.4-0.7-0.9-1.4-1.3-2l3.9-8.5l-8.5,3.9c-0.6-0.5-1.3-0.9-1.9-1.4c-1.5-0.9-3.2-1.7-4.9-2.3c-0.7-0.2-1.4-0.4-2.2-0.6
					l-0.9-3.8l-4-17.3l-4.9,21c-0.8,0.2-1.5,0.4-2.2,0.6c-1.8,0.6-3.4,1.3-4.9,2.2c-0.7,0.4-1.4,0.9-2,1.3L21.4,22l3.7,8.1
					c-0.5,0.6-0.9,1.3-1.4,2c-1,1.6-1.8,3.3-2.4,5.1c-0.2,0.7-0.4,1.4-0.6,2.2l-3.5,0.9l0,0L0,44.3l16.5,3.9l0,0l0.3,0.1l3.9,0.9
					c0.1,0.8,0.3,1.5,0.6,2.2c0.6,1.9,1.4,3.7,2.5,5.3c0.4,0.7,0.9,1.3,1.4,1.9l-3.7,8.2l8.2-3.7c0.6,0.5,1.3,0.9,2,1.4
					c1.6,0.9,3.2,1.7,5,2.2c0.7,0.2,1.4,0.4,2.2,0.5l0.7,2.7L43.7,88l4.9-20.9c0.8-0.2,1.5-0.4,2.2-0.6c1.8-0.6,3.4-1.4,4.9-2.3
					c0.7-0.4,1.3-0.9,1.9-1.3l8.5,3.9l-3.9-8.6C62.7,57.5,63.2,56.9,63.6,56.2z"/>
			</g>
		</g>
	</g>
</g>
</svg>
