<?xml version="1.0" encoding="utf-8"?>
<!-- Generator: Adobe Illustrator 22.1.0, SVG Export Plug-In . SVG Version: 6.00 Build 0)  -->
<svg version="1.1" id="Layer_1" xmlns="http://www.w3.org/2000/svg" xmlns:xlink="http://www.w3.org/1999/xlink" x="0px" y="0px"
	 viewBox="0 0 227 121" style="enable-background:new 0 0 227 121;" xml:space="preserve">
<style type="text/css">
	.st0{filter:url(#Adobe_OpacityMaskFilter);}
	.st1{fill:#FFFFFF;}
	.st2{mask:url(#mask-2_1_);fill:#E8C547;}
	.st3{fill:#E8C547;}
	.st4{filter:url(#Adobe_OpacityMaskFilter_1_);}
	.st5{mask:url(#mask-4_1_);fill:#E8C547;}
	.st6{filter:url(#Adobe_OpacityMaskFilter_2_);}
	.st7{mask:url(#mask-6_1_);fill:#E8C547;}
</style>
<g id="Page-1_1_">
	<g id="Tablet-Home" transform="translate(-271.000000, -168.000000)">
		<g id="Page-1" transform="translate(271.000000, 168.000000)">
			<g id="Group-3" transform="translate(52.000000, 96.000000)">
				<g id="Clip-2">
				</g>
				<defs>
					<filter id="Adobe_OpacityMaskFilter" filterUnits="userSpaceOnUse" x="0.1" y="0.2" width="24.2" height="24.8">
						<feColorMatrix  type="matrix" values="1 0 0 0 0  0 1 0 0 0  0 0 1 0 0  0 0 0 1 0"/>
					</filter>
				</defs>
				<mask maskUnits="userSpaceOnUse" x="0.1" y="0.2" width="24.2" height="24.8" id="mask-2_1_">
					<g class="st0">
						<polygon id="path-1_1_" class="st1" points="0.1,0.2 24.4,0.2 24.4,25 0.1,25 						"/>
					</g>
				</mask>
				<path id="Fill-1" class="st2" d="M6.1,12.4h6.4l-2-5.9c-0.4-1.1-0.7-2-1.1-2.7L6.1,12.4z M3.4,0.9c1.1-0.5,2.2-0.7,3.2-0.7
					c0.8,0,1.7,0.3,2.6,0.9c0.5,0.3,1,1,1.6,2c0.4,0.7,0.9,1.9,1.5,3.7l3.1,8.8c0.7,2,1.4,3.5,2.2,4.7c0.7,1.2,1.4,2,2,2.6
					c0.6,0.6,1.2,1,1.9,1.2c0.7,0.2,1.2,0.4,1.6,0.4s0.8,0,1.2-0.1l0,0.3C23.6,24.9,22.8,25,22,25c-0.8,0-1.6-0.2-2.3-0.6
					c-0.8-0.4-1.5-0.9-2.2-1.7C16,21.3,14.8,19,13.8,16l-1-2.9h-7l-1.8,4.5C4,17.8,3.9,18,3.9,18.3c0,0.2,0.1,0.4,0.3,0.6
					c0.2,0.2,0.5,0.3,0.8,0.3h0.2v0.3H0.1v-0.3h0.2c0.4,0,0.8-0.1,1.2-0.4c0.4-0.2,0.7-0.6,1-1.1L8.8,2.7c-0.9-1.3-2-2-3.4-2
					c-0.6,0-1.3,0.1-2,0.4L3.4,0.9z"/>
			</g>
			<path id="Fill-4" class="st3" d="M74.7,98.8v16.5h5.1c1.4,0,2.7-0.3,3.8-1c1.1-0.7,2-1.6,2.6-2.9c0.6-1.2,0.9-2.7,0.9-4.3
				c0-2.5-0.7-4.5-2-6c-1.4-1.5-3.1-2.3-5.3-2.3H74.7z M86.4,100.5c1.7,1.7,2.6,3.8,2.6,6.5c0,2.7-0.9,4.9-2.6,6.5s-3.9,2.5-6.7,2.5
				H71v-0.3h0.3c0.4,0,0.8-0.2,1.1-0.5s0.5-0.7,0.5-1.1V99.7c0-0.4-0.2-0.8-0.5-1c-0.3-0.3-0.7-0.4-1.1-0.4H71l0-0.3h8.7
				C82.5,98,84.7,98.8,86.4,100.5z"/>
			<path id="Fill-6" class="st3" d="M103,98h5v0.3h-0.2c-0.4,0-0.8,0.1-1.2,0.4c-0.4,0.3-0.7,0.7-0.9,1.2l-6,13.6
				c-0.6,1.4-0.9,2.2-0.9,2.6h-0.2l-7-16.2c-0.2-0.5-0.6-0.9-1-1.2c-0.4-0.3-0.8-0.4-1.2-0.4H89V98h5.6v0.3h-0.2
				c-0.4,0-0.6,0.1-0.8,0.3s-0.3,0.4-0.3,0.6c0,0.2,0,0.4,0.1,0.6l5.2,13.2l5.5-13.2c0.1-0.2,0.1-0.4,0.1-0.6c0-0.2-0.1-0.4-0.3-0.6
				c-0.2-0.2-0.4-0.3-0.8-0.3H103V98z"/>
			<path id="Fill-8" class="st3" d="M110.4,115.7c0.5,0,0.9-0.2,1.2-0.5c0.3-0.3,0.5-0.7,0.5-1.1V99.9c0-0.4-0.2-0.8-0.5-1.1
				c-0.3-0.3-0.7-0.5-1.2-0.5H110V98h6v0.3h-0.4c-0.5,0-0.9,0.2-1.2,0.5c-0.3,0.3-0.5,0.7-0.5,1.1v14.3c0,0.4,0.2,0.8,0.5,1.1
				c0.3,0.3,0.8,0.5,1.2,0.5h0.4v0.3h-6v-0.3H110.4z"/>
			<path id="Fill-10" class="st3" d="M118.1,114.6c0-0.2-0.1-0.7-0.1-1.3c0-0.7,0.1-1.4,0.4-2.1h0.2c0,0.2,0,0.4,0,0.5
				c0,1,0.3,1.8,0.9,2.5c0.6,0.7,1.4,1,2.4,1c1.1,0,1.9-0.3,2.6-0.9c0.7-0.6,1-1.4,1-2.4c0-0.9-0.3-1.7-1-2.3l-4.8-4.4
				c-0.9-0.8-1.3-1.8-1.3-3s0.4-2.2,1.2-3c0.8-0.8,1.9-1.2,3.2-1.2c0.6,0,1.3,0.1,2.2,0.2h1v3h-0.2c0-0.8-0.3-1.4-0.8-1.9
				c-0.5-0.5-1.2-0.7-2.1-0.7c-0.8,0-1.6,0.3-2.1,0.8c-0.6,0.6-0.9,1.3-0.9,2.1c0,0.8,0.3,1.6,1,2.2l4.9,4.5
				c0.8,0.8,1.2,1.8,1.2,3.1s-0.4,2.4-1.3,3.2c-0.8,0.9-2,1.3-3.4,1.3c-0.7,0-1.5-0.1-2.3-0.3C119.2,115.4,118.5,115.1,118.1,114.6"
				/>
			<path id="Fill-12" class="st3" d="M134,113c1.4,1.5,3.2,2.3,5.5,2.3c2.3,0,4.1-0.8,5.5-2.3c1.4-1.5,2.1-3.5,2.1-6s-0.7-4.5-2.1-6
				c-1.4-1.5-3.2-2.3-5.5-2.3c-2.3,0-4.1,0.8-5.5,2.3c-1.4,1.5-2.1,3.5-2.1,6S132.6,111.5,134,113 M132.6,100.5
				c1.8-1.7,4-2.5,6.9-2.5c2.8,0,5.1,0.8,6.9,2.5c1.8,1.7,2.6,3.8,2.6,6.5s-0.9,4.9-2.6,6.5c-1.8,1.7-4,2.5-6.9,2.5
				c-2.8,0-5.1-0.8-6.9-2.5c-1.8-1.7-2.6-3.8-2.6-6.5S130.9,102.1,132.6,100.5"/>
			<path id="Fill-14" class="st3" d="M156.2,98.8h-1.6v15.3c0,0.4,0.2,0.8,0.5,1.1c0.3,0.3,0.7,0.5,1.2,0.5h0.3l0,0.3H151v-0.3h0.3
				c0.4,0,0.8-0.2,1.1-0.5c0.3-0.3,0.5-0.7,0.5-1.1V99.9c0-0.4-0.2-0.8-0.5-1.1c-0.3-0.3-0.7-0.5-1.1-0.5H151V98h6.9
				c1.5,0,2.8,0.4,3.6,1.3c0.9,0.9,1.3,2,1.3,3.4s-0.4,2.6-1.3,3.6c-0.8,1-1.9,1.5-3.1,1.5c0.3,0.1,0.6,0.4,0.9,0.7
				c0.3,0.4,0.7,0.7,0.9,1.1c1.5,2.1,2.4,3.4,2.9,3.9c0.4,0.5,0.8,0.8,0.9,1c0.2,0.2,0.4,0.4,0.6,0.5c0.2,0.2,0.4,0.3,0.7,0.4
				c0.5,0.2,1,0.4,1.6,0.4v0.3h-1.4c-0.7,0-1.4-0.1-2-0.4c-0.6-0.3-1.1-0.5-1.4-0.8c-0.3-0.3-0.6-0.6-0.8-0.8
				c-0.2-0.3-0.9-1.2-1.9-2.7c-1-1.5-1.6-2.4-1.8-2.6c-0.2-0.2-0.3-0.4-0.5-0.6c-0.5-0.6-1.1-0.9-1.6-0.9v-0.3c0.1,0,0.3,0,0.5,0
				c0.2,0,0.5,0,0.8,0c2.1-0.1,3.4-0.9,4-2.7c0.1-0.3,0.2-0.7,0.2-1v-0.6c0-1.1-0.3-2.1-0.9-2.8c-0.6-0.7-1.3-1.1-2.3-1.1
				C157.4,98.8,156.9,98.8,156.2,98.8"/>
			<path id="Fill-16" class="st3" d="M168.1,114.6c0-0.2-0.1-0.7-0.1-1.3c0-0.7,0.1-1.4,0.4-2.1h0.2c0,0.2,0,0.4,0,0.5
				c0,1,0.3,1.8,0.9,2.5c0.6,0.7,1.4,1,2.4,1c1.1,0,1.9-0.3,2.6-0.9c0.7-0.6,1-1.4,1-2.4c0-0.9-0.3-1.7-1-2.3l-4.8-4.4
				c-0.9-0.8-1.3-1.8-1.3-3s0.4-2.2,1.2-3c0.8-0.8,1.9-1.2,3.2-1.2c0.6,0,1.3,0.1,2.2,0.2h1v3h-0.2c0-0.8-0.3-1.4-0.8-1.9
				c-0.5-0.5-1.2-0.7-2.1-0.7c-0.8,0-1.6,0.3-2.1,0.8c-0.6,0.6-0.9,1.3-0.9,2.1c0,0.8,0.3,1.6,1,2.2l4.9,4.5
				c0.8,0.8,1.2,1.8,1.2,3.1s-0.4,2.4-1.3,3.2c-0.9,0.9-2,1.3-3.4,1.3c-0.7,0-1.5-0.1-2.3-0.3C169.2,115.4,168.5,115.1,168.1,114.6"
				/>
			<g id="Group-20" transform="translate(0.000000, 67.000000)">
				<g id="Clip-19">
				</g>
				<defs>
					<filter id="Adobe_OpacityMaskFilter_1_" filterUnits="userSpaceOnUse" x="0" y="0.6" width="13.4" height="18">
						<feColorMatrix  type="matrix" values="1 0 0 0 0  0 1 0 0 0  0 0 1 0 0  0 0 0 1 0"/>
					</filter>
				</defs>
				<mask maskUnits="userSpaceOnUse" x="0" y="0.6" width="13.4" height="18" id="mask-4_1_">
					<g class="st4">
						<polygon id="path-3_1_" class="st1" points="0,0.6 13.4,0.6 13.4,18.7 0,18.7 						"/>
					</g>
				</mask>
				<path id="Fill-18" class="st5" d="M7.6,0.6c1.5,0,2.8,0.4,3.8,1.1c1.3,0.9,2,2.4,2,4.4c0,1.4-0.4,2.7-1.2,3.7
					c-0.9,1.1-2.2,1.6-3.8,1.6c-0.8,0-1.6-0.2-2.3-0.6c-0.7-0.4-1.1-1.1-1.2-2l0.2-0.1c0.2,0.7,0.6,1.2,1.3,1.5
					c0.5,0.2,0.9,0.3,1.2,0.3c1.4,0,2.4-0.5,3.1-1.6c0.5-0.8,0.7-1.7,0.7-2.8c0-1.7-0.5-3-1.5-3.8C9.2,1.7,8.2,1.4,7,1.4
					c-0.3,0-0.5,0-0.7,0c-0.2,0-1.1,0.2-2.6,0.4v14.9c0,0.5,0.2,0.8,0.5,1.1c0.3,0.3,0.7,0.5,1.1,0.5h0.3v0.3H0v-0.3h0.3
					c0.4,0,0.8-0.2,1.1-0.5C1.8,17.7,2,17.3,2,16.8V3.2c0-0.4-0.1-0.8-0.4-1C1.4,1.9,1,1.8,0.6,1.8c-0.1,0-0.2,0-0.3,0l-0.3,0L0,1.6
					c0.9-0.1,2.1-0.2,3.6-0.5c1.5-0.2,2.5-0.4,2.8-0.4C6.8,0.7,7.2,0.6,7.6,0.6"/>
			</g>
			<path id="Fill-21" class="st3" d="M19,82c1.4,1.5,3.2,2.3,5.5,2.3c2.3,0,4.1-0.8,5.5-2.3c1.4-1.5,2.1-3.5,2.1-6
				c0-2.5-0.7-4.5-2.1-6c-1.4-1.5-3.2-2.3-5.5-2.3c-2.3,0-4.1,0.8-5.5,2.3c-1.4,1.5-2.1,3.5-2.1,6C16.9,78.5,17.6,80.5,19,82
				 M17.6,69.5c1.8-1.7,4-2.5,6.9-2.5c2.8,0,5.1,0.8,6.9,2.5c1.8,1.7,2.6,3.8,2.6,6.5c0,2.7-0.9,4.9-2.6,6.5c-1.8,1.7-4,2.5-6.9,2.5
				c-2.8,0-5.1-0.8-6.9-2.5C15.9,80.9,15,78.7,15,76C15,73.3,15.9,71.1,17.6,69.5"/>
			<path id="Fill-23" class="st3" d="M40.7,68.8v16.5h5.1c1.4,0,2.7-0.3,3.8-1c1.1-0.7,2-1.6,2.6-2.9c0.6-1.2,0.9-2.7,0.9-4.3
				c0-2.5-0.7-4.5-2-6c-1.4-1.5-3.1-2.3-5.3-2.3H40.7z M52.4,70.5c1.7,1.7,2.6,3.8,2.6,6.5c0,2.7-0.9,4.9-2.6,6.5
				c-1.7,1.7-3.9,2.5-6.7,2.5H37v-0.3h0.3c0.4,0,0.8-0.2,1.1-0.5c0.3-0.3,0.5-0.7,0.5-1.1V69.7c0-0.4-0.2-0.8-0.5-1
				c-0.3-0.3-0.7-0.4-1.1-0.4H37l0-0.3h8.7C48.5,68,50.7,68.8,52.4,70.5z"/>
			<path id="Fill-25" class="st3" d="M57.3,84.7c0.4,0,0.8-0.2,1.1-0.5c0.3-0.3,0.5-0.7,0.5-1.1v-14c0-0.4-0.2-0.7-0.5-1
				c-0.3-0.3-0.7-0.4-1.1-0.4H57l0-0.3h7.4c0.5,0,1.1,0,1.7-0.2c0.6-0.1,1.1-0.2,1.3-0.3v3.2h-0.3v-0.5c0-0.4-0.1-0.7-0.4-1
				c-0.3-0.3-0.6-0.4-1-0.5h-5.2V76h4.3c0.3,0,0.6-0.1,0.9-0.4c0.2-0.2,0.4-0.5,0.4-0.9v-0.4h0.3v4h-0.3V78c0-0.3-0.1-0.6-0.3-0.9
				c-0.2-0.2-0.5-0.4-0.8-0.4h-4.3v7.5h3.6c1.3,0,2.2-0.3,2.9-0.8s1.2-1.4,1.6-2.5H69L67.5,85H57v-0.3H57.3z"/>
			<path id="Fill-27" class="st3" d="M71.1,83.6c0-0.2-0.1-0.7-0.1-1.3c0-0.7,0.1-1.4,0.4-2.1h0.2c0,0.2,0,0.4,0,0.5
				c0,1,0.3,1.8,0.9,2.5c0.6,0.7,1.4,1,2.4,1c1,0,1.9-0.3,2.6-0.9c0.7-0.6,1-1.4,1-2.4c0-0.9-0.3-1.7-1-2.3l-4.8-4.4
				c-0.9-0.8-1.3-1.8-1.3-3c0-1.2,0.4-2.2,1.2-3c0.8-0.8,1.9-1.2,3.2-1.2c0.6,0,1.4,0.1,2.2,0.2h1v3h-0.2c0-0.8-0.3-1.4-0.8-1.9
				c-0.5-0.5-1.2-0.7-2.1-0.7c-0.8,0-1.6,0.3-2.1,0.8c-0.6,0.6-0.9,1.3-0.9,2.1c0,0.8,0.3,1.6,1,2.2l4.9,4.5
				c0.8,0.8,1.2,1.8,1.2,3.1c0,1.3-0.4,2.4-1.3,3.2c-0.8,0.8-2,1.3-3.4,1.3c-0.7,0-1.5-0.1-2.3-0.3C72.2,84.4,71.5,84.1,71.1,83.6"
				/>
			<path id="Fill-29" class="st3" d="M96.7,69.7c0-0.4-0.1-0.7-0.4-1c-0.3-0.3-0.6-0.4-1-0.5h-4.9v15c0,0.4,0.2,0.8,0.5,1.1
				c0.3,0.3,0.7,0.5,1.2,0.5h0.3V85h-5.7v-0.2H87c0.4,0,0.8-0.2,1.2-0.5c0.3-0.3,0.5-0.7,0.5-1.1v-15h-4.9c-0.4,0-0.8,0.2-1,0.5
				c-0.3,0.3-0.4,0.6-0.4,1v0.4l-0.3,0V67c0.3,0.1,0.7,0.2,1.3,0.3c0.6,0.1,1.2,0.2,1.8,0.2h8.8c0.8,0,1.5-0.1,2.1-0.2
				c0.6-0.1,0.9-0.2,1-0.3v3.2l-0.3,0V69.7z"/>
			<path id="Fill-31" class="st3" d="M102,78.1h6.4l-3.1-8.1L102,78.1z M114.8,84.7h0.2V85h-5.8v-0.3h0.2c0.4,0,0.6-0.1,0.8-0.3
				c0.2-0.2,0.3-0.4,0.3-0.6c0-0.2,0-0.4-0.1-0.6l-1.7-4.3h-7l-1.7,4.3c-0.1,0.2-0.1,0.4-0.1,0.6c0,0.2,0.1,0.4,0.3,0.6
				c0.2,0.2,0.5,0.3,0.8,0.3h0.2V85H96v-0.3h0.2c0.4,0,0.9-0.1,1.3-0.4c0.4-0.3,0.8-0.7,1-1.2l5.9-13.6c0.6-1.4,1-2.2,1-2.6h0.2
				l6.9,16.2c0.2,0.5,0.6,0.9,1,1.2C113.9,84.6,114.3,84.7,114.8,84.7z"/>
			<path id="Fill-33" class="st3" d="M140,76c0,2.8-0.8,5-2.3,6.6c-1.6,1.6-3.8,2.4-6.6,2.4c-1.9,0-3.7-0.4-5.2-1.2
				c-1.5-0.8-2.7-1.9-3.6-3.2c-0.9-1.4-1.3-2.9-1.3-4.6s0.4-3.2,1.3-4.6c0.8-1.4,2-2.4,3.5-3.2c1.5-0.8,3.1-1.2,5-1.2
				c1.1,0,2.3,0.2,3.5,0.5c1.2,0.3,2.2,0.7,3,1.2l0.5,3.5h-0.2c-0.4-1.4-1.2-2.5-2.5-3.3c-1.3-0.8-2.7-1.2-4.3-1.2
				c-2.2,0-4.1,0.8-5.6,2.3c-1.5,1.6-2.2,3.5-2.2,5.9c0,2.4,0.8,4.3,2.3,5.9s3.6,2.4,6.1,2.4c2.5,0,4.5-0.8,6.1-2.4
				c1.6-1.6,2.4-3.8,2.4-6.5h0.3C140,75.6,140,75.8,140,76"/>
			<path id="Fill-35" class="st3" d="M146,78.1h6.4l-3.1-8.1L146,78.1z M158.8,84.7h0.2V85h-5.8v-0.3h0.2c0.4,0,0.6-0.1,0.8-0.3
				c0.2-0.2,0.3-0.4,0.3-0.6c0-0.2,0-0.4-0.1-0.6l-1.7-4.3h-7l-1.7,4.3c-0.1,0.2-0.1,0.4-0.1,0.6c0,0.2,0.1,0.4,0.3,0.6
				c0.2,0.2,0.5,0.3,0.8,0.3h0.2V85H140v-0.3h0.2c0.4,0,0.9-0.1,1.3-0.4c0.4-0.3,0.8-0.7,1-1.2l5.9-13.6c0.6-1.4,1-2.2,1-2.6h0.2
				l6.9,16.2c0.2,0.5,0.6,0.9,1,1.2C157.9,84.6,158.3,84.7,158.8,84.7z"/>
			<path id="Fill-37" class="st3" d="M172,73c0,0.8-0.2,1.5-0.5,2.1c-0.6,1.2-1.6,2.1-3,2.5c-0.5,0.2-0.9,0.3-1.3,0.3
				c-1.1,0-2-0.2-2.7-0.6V77c1.3,0.3,2.4,0.1,3.5-0.4c0.9-0.5,1.6-1.3,1.9-2.4c0.1-0.3,0.2-0.7,0.2-1v-0.6c0-1.2-0.4-2.2-1-2.9
				c-0.6-0.7-1.4-1.1-2.5-1.1h-3v15.4c0,0.4,0.2,0.8,0.5,1.1c0.3,0.3,0.7,0.5,1.1,0.5h0.3V86H160v-0.3h0.3c0.4,0,0.8-0.2,1.1-0.5
				c0.3-0.3,0.5-0.7,0.5-1.1V69.8c-0.1-0.4-0.2-0.8-0.5-1.1c-0.3-0.3-0.7-0.4-1.1-0.4H160l0-0.3h6.7c1.6,0,2.9,0.4,3.9,1.3
				S172,71.4,172,73"/>
			<path id="Fill-39" class="st3" d="M175.4,85.7c0.5,0,0.9-0.2,1.2-0.5c0.3-0.3,0.5-0.7,0.5-1.1V69.9c0-0.4-0.2-0.8-0.5-1.1
				c-0.3-0.3-0.7-0.5-1.2-0.5H175V68h6v0.3h-0.4c-0.5,0-0.9,0.2-1.2,0.5c-0.3,0.3-0.5,0.7-0.5,1.1v14.3c0,0.4,0.2,0.8,0.5,1.1
				c0.3,0.3,0.8,0.5,1.2,0.5h0.4V86h-6v-0.3H175.4z"/>
			<path id="Fill-41" class="st3" d="M196.7,69.7c0-0.4-0.1-0.7-0.4-1c-0.3-0.3-0.6-0.4-1-0.5h-4.9v15c0,0.4,0.2,0.8,0.5,1.1
				c0.3,0.3,0.7,0.5,1.2,0.5h0.3V85h-5.7v-0.2h0.3c0.4,0,0.8-0.2,1.2-0.5c0.3-0.3,0.5-0.7,0.5-1.1v-15h-4.9c-0.4,0-0.8,0.2-1,0.5
				c-0.3,0.3-0.4,0.6-0.4,1v0.4l-0.3,0V67c0.3,0.1,0.7,0.2,1.3,0.3c0.6,0.1,1.2,0.2,1.8,0.2h8.8c0.8,0,1.5-0.1,2.1-0.2
				c0.6-0.1,0.9-0.2,1-0.3v3.2l-0.3,0V69.7z"/>
			<path id="Fill-43" class="st3" d="M201,78.1h6.4l-3.1-8.1L201,78.1z M213.8,84.7h0.2V85h-5.8v-0.3h0.2c0.4,0,0.6-0.1,0.8-0.3
				c0.2-0.2,0.3-0.4,0.3-0.6c0-0.2,0-0.4-0.1-0.6l-1.7-4.3h-7l-1.7,4.3c-0.1,0.2-0.1,0.4-0.1,0.6c0,0.2,0.1,0.4,0.3,0.6
				c0.2,0.2,0.5,0.3,0.8,0.3h0.2V85H195v-0.3h0.2c0.4,0,0.9-0.1,1.3-0.4c0.4-0.3,0.8-0.7,1-1.2l5.9-13.6c0.6-1.4,1-2.2,1-2.6h0.2
				l6.9,16.2c0.2,0.5,0.6,0.9,1,1.2C212.9,84.6,213.3,84.7,213.8,84.7z"/>
			<path id="Fill-45" class="st3" d="M215.3,85.7c0.4,0,0.8-0.2,1.1-0.5c0.3-0.3,0.5-0.7,0.5-1.1V69.9c0-0.4-0.2-0.8-0.5-1.1
				c-0.3-0.3-0.7-0.5-1.1-0.5H215V68h5.6v0.3h-0.3c-0.6,0-1.1,0.3-1.4,0.8c-0.2,0.3-0.2,0.5-0.2,0.8v15.3h3.6c1.3,0,2.2-0.3,2.9-0.8
				c0.7-0.6,1.2-1.4,1.6-2.5h0.3l-1.5,4.2H215v-0.3H215.3z"/>
			<path id="Fill-47" class="st3" d="M133.9,27.5L136,28c-0.7-3.4-2-6.4-4-9l-1,2.1C132.3,23,133.3,25.1,133.9,27.5"/>
			<path id="Fill-49" class="st3" d="M104.3,48l-2.3,0.9c2.9,2.1,6.2,3.4,10,4.1l-0.6-2.1C108.8,50.3,106.4,49.4,104.3,48"/>
			<path id="Fill-51" class="st3" d="M96.4,36.5L94,36c0.8,3.8,2.4,7.1,5,10l1-2.2C98.3,41.6,97.1,39.2,96.4,36.5"/>
			<path id="Fill-53" class="st3" d="M120.6,51.5L120,54c3.8-0.8,7.1-2.4,10-4.9l-2.3-1.1C125.6,49.6,123.2,50.8,120.6,51.5"/>
			<path id="Fill-55" class="st3" d="M131,42.9l0.9,2.1c2-2.6,3.4-5.6,4.1-9l-2.1,0.5C133.3,38.9,132.4,41,131,42.9"/>
			<path id="Fill-57" class="st3" d="M127.7,17l2.3-1.1c-2.9-2.5-6.2-4.1-10-4.9l0.6,2.5C123.2,14.2,125.6,15.4,127.7,17"/>
			<path id="Fill-59" class="st3" d="M100,21.3L99,19c-2.5,2.9-4.2,6.2-5,10l2.5-0.6C97.2,25.8,98.3,23.4,100,21.3"/>
			<path id="Fill-61" class="st3" d="M111.4,13.1L112,11c-3.8,0.6-7.1,2-10,4.1l2.3,0.9C106.4,14.6,108.8,13.6,111.4,13.1"/>
			<g id="Group-65" transform="translate(83.000000, 0.000000)">
				<g id="Clip-64">
				</g>
				<defs>
					<filter id="Adobe_OpacityMaskFilter_2_" filterUnits="userSpaceOnUse" x="0.4" y="0.8" width="63.6" height="64.2">
						<feColorMatrix  type="matrix" values="1 0 0 0 0  0 1 0 0 0  0 0 1 0 0  0 0 0 1 0"/>
					</filter>
				</defs>
				<mask maskUnits="userSpaceOnUse" x="0.4" y="0.8" width="63.6" height="64.2" id="mask-6_1_">
					<g class="st6">
						<polygon id="path-5_1_" class="st1" points="0.4,0.8 64,0.8 64,65 0.4,65 						"/>
					</g>
				</mask>
				<path id="Fill-63" class="st7" d="M36,47.4l1.7-8.2l8.7-2.1C45,42.1,41,46,36,47.4z M32.1,39.5c-3.7,0-6.7-3-6.7-6.7
					c0-3.7,3-6.7,6.7-6.7c3.7,0,6.7,3,6.7,6.7C38.8,36.5,35.8,39.5,32.1,39.5z M32.5,57.4L31.9,55V41.3l0,0c0.1,0,0.2,0,0.2,0
					c1.2,0,2.4-0.3,3.5-0.8L32.5,57.4z M27.3,47.2c-0.7-0.3-1.5-0.6-2.1-0.9c-1.9-1-3.5-2.3-4.8-4h0c-0.5-0.7-1-1.4-1.4-2.1h0
					c-0.1-0.1-0.1-0.1-0.1-0.2c-0.3-0.7-0.6-1.4-0.9-2.1c-0.1-0.3-0.2-0.6-0.3-0.9l8.2,1.7c0,0,0,0,0,0.1l2.1,8.8
					C27.8,47.3,27.5,47.2,27.3,47.2C27.3,47.1,27.3,47.1,27.3,47.2z M7.9,32.9l0.2,0h15.6c0,1.4,0.3,2.7,0.9,3.8L7.9,32.9z
					 M17.9,28.3c0-0.1,0-0.1,0-0.2c0.1-0.2,0.1-0.3,0.2-0.5c1.7-4.5,5.4-8,10.1-9.3l-1.6,8c-0.1,0.1-0.2,0.2-0.3,0.3l-8.5,2.1
					C17.8,28.6,17.9,28.5,17.9,28.3z M32.1,7.4l0.1,0.4v16.5c0,0,0,0-0.1,0c-1.2,0-2.3,0.2-3.3,0.7L32.1,7.4z M46.4,28.9l-7.9-1.7
					c0-0.1-0.1-0.1-0.1-0.1l-2.1-8.7C41.2,19.9,45.1,23.9,46.4,28.9z M58,32.9L57.2,33H40.5l0,0.1c0-0.1,0-0.2,0-0.3
					c0-1.4-0.3-2.7-0.9-3.8L58,32.9z M46.6,41.6c0.6-1.1,1.2-2.3,1.5-3.5c0.2-0.5,0.3-1.1,0.4-1.6l2.3-0.6l13-3.1l-15.4-3.6
					c-0.1-0.6-0.2-1.1-0.4-1.6c-0.4-1.2-0.9-2.3-1.5-3.4c-0.3-0.5-0.6-1-1-1.5l2.9-6.3l-6.2,2.9c-0.5-0.3-0.9-0.7-1.4-1
					c-1.1-0.7-2.3-1.2-3.6-1.7c-0.5-0.2-1.1-0.3-1.6-0.4l-0.7-2.8L32.1,0.8l-3.5,15.4c-0.6,0.1-1.1,0.3-1.6,0.4
					c-1.3,0.4-2.5,1-3.6,1.6c-0.5,0.3-1,0.6-1.5,1l-6-2.7l2.7,6c-0.4,0.5-0.7,0.9-1,1.5c-0.7,1.2-1.3,2.4-1.8,3.8
					c-0.2,0.5-0.3,1-0.4,1.6l-2.5,0.6l0,0L0.4,32.9l12,2.8l0,0l0.2,0l2.8,0.7c0.1,0.6,0.2,1.1,0.4,1.6c0.4,1.4,1,2.7,1.8,3.9
					c0.3,0.5,0.6,1,1,1.4l-2.7,6l6-2.7c0.5,0.4,1,0.7,1.5,1c1.1,0.7,2.4,1.2,3.7,1.6c0.5,0.2,1,0.3,1.6,0.4l0.5,2L32.1,65l3.5-15.3
					c0.5-0.1,1.1-0.3,1.6-0.5c1.3-0.4,2.5-1,3.6-1.7c0.5-0.3,0.9-0.6,1.4-1l6.2,2.9l-2.9-6.3C46,42.6,46.3,42.1,46.6,41.6z"/>
			</g>
		</g>
	</g>
</g>
</svg>
